<svg width="18" height="19" viewBox="0 0 18 19" fill="none" xmlns="http://www.w3.org/2000/svg">
<path fill-rule="evenodd" clip-rule="evenodd" d="M9 17.0391C7.01088 17.0391 5.10322 16.2489 3.6967 14.8424C2.29018 13.4358 1.5 11.5282 1.5 9.53906C1.5 7.54994 2.29018 5.64228 3.6967 4.23576C5.10322 2.82924 7.01088 2.03906 9 2.03906C10.9891 2.03906 12.8968 2.82924 14.3033 4.23576C15.7098 5.64228 16.5 7.54994 16.5 9.53906C16.5 11.5282 15.7098 13.4358 14.3033 14.8424C12.8968 16.2489 10.9891 17.0391 9 17.0391ZM10.2788 6.76031L8.26125 10.6134L6.81469 9.31031C6.72315 9.22795 6.61629 9.16442 6.5002 9.12336C6.38412 9.08229 6.26108 9.06449 6.13811 9.07098C6.01515 9.07747 5.89466 9.10811 5.78354 9.16116C5.67242 9.2142 5.57283 9.28862 5.49047 9.38016C5.40811 9.47169 5.34458 9.57855 5.30351 9.69464C5.26245 9.81073 5.24465 9.93377 5.25114 10.0567C5.25762 10.1797 5.28826 10.3002 5.34131 10.4113C5.39436 10.5224 5.46878 10.622 5.56031 10.7044L7.90406 12.8138C8.01026 12.9094 8.13691 12.9795 8.27434 13.0187C8.41177 13.0579 8.55634 13.0651 8.69701 13.0399C8.83767 13.0146 8.9707 12.9576 9.08594 12.8731C9.20117 12.7885 9.29555 12.6788 9.36187 12.5522L11.94 7.63031C12.0554 7.41002 12.0785 7.15291 12.0043 6.91556C11.9301 6.67821 11.7647 6.48006 11.5444 6.36469C11.3241 6.24932 11.067 6.22619 10.8296 6.30038C10.5923 6.37457 10.3941 6.54002 10.2788 6.76031Z" fill="#A7CAFF"/>
</svg>
