<svg width="19" height="19" viewBox="0 0 19 19" fill="none" xmlns="http://www.w3.org/2000/svg">
<path fill-rule="evenodd" clip-rule="evenodd" d="M9.23438 17.0391C7.24525 17.0391 5.3376 16.2489 3.93107 14.8424C2.52455 13.4358 1.73438 11.5282 1.73438 9.53906C1.73438 7.54994 2.52455 5.64228 3.93107 4.23576C5.3376 2.82924 7.24525 2.03906 9.23438 2.03906C11.2235 2.03906 13.1312 2.82924 14.5377 4.23576C15.9442 5.64228 16.7344 7.54994 16.7344 9.53906C16.7344 11.5282 15.9442 13.4358 14.5377 14.8424C13.1312 16.2489 11.2235 17.0391 9.23438 17.0391ZM10.5131 6.76031L8.49562 10.6134L7.04906 9.31031C6.95753 9.22795 6.85067 9.16442 6.73458 9.12336C6.61849 9.08229 6.49545 9.06449 6.37249 9.07098C6.24952 9.07747 6.12904 9.10811 6.01792 9.16116C5.90679 9.2142 5.80721 9.28862 5.72484 9.38016C5.64248 9.47169 5.57895 9.57855 5.53789 9.69464C5.49682 9.81073 5.47903 9.93377 5.48551 10.0567C5.492 10.1797 5.52264 10.3002 5.57569 10.4113C5.62874 10.5224 5.70315 10.622 5.79469 10.7044L8.13844 12.8138C8.24463 12.9094 8.37128 12.9795 8.50871 13.0187C8.64615 13.0579 8.79072 13.0651 8.93138 13.0399C9.07205 13.0146 9.20508 12.9576 9.32031 12.8731C9.43554 12.7885 9.52993 12.6788 9.59625 12.5522L12.1744 7.63031C12.2897 7.41002 12.3129 7.15291 12.2387 6.91556C12.1645 6.67821 11.999 6.48006 11.7787 6.36469C11.5585 6.24932 11.3014 6.22619 11.064 6.30038C10.8267 6.37457 10.6285 6.54002 10.5131 6.76031Z" fill="#5D9EFF"/>
</svg>
