<svg width="21" height="21" viewBox="0 0 21 21" fill="none" xmlns="http://www.w3.org/2000/svg">
<path d="M19.5201 1.92871C19.9146 1.92871 20.2344 2.24851 20.2344 2.643V9.50014C20.2344 11.4726 18.6354 13.0716 16.6629 13.0716H2.6731L7.45374 17.8522C7.73268 18.1312 7.73268 18.5834 7.45374 18.8624C7.17479 19.1413 6.72253 19.1413 6.44358 18.8624L0.443584 12.8624C0.164639 12.5834 0.164639 12.1312 0.443584 11.8522L6.15787 6.13792C6.43682 5.85897 6.88908 5.85897 7.16802 6.13792C7.44697 6.41687 7.44697 6.86913 7.16802 7.14807L2.6731 11.643H16.6629C17.8464 11.643 18.8058 10.6836 18.8058 9.50014V2.643C18.8058 2.24851 19.1256 1.92871 19.5201 1.92871Z" fill="#FFF2F6"/>
</svg>
