<svg width="18" height="18" viewBox="0 0 18 18" fill="none" xmlns="http://www.w3.org/2000/svg">
<path d="M17.3571 1.28564C17.7122 1.28564 18 1.57346 18 1.9285V8.09993C18 9.87513 16.5609 11.3142 14.7857 11.3142H2.19485L6.49743 15.6168C6.74848 15.8678 6.74848 16.2749 6.49743 16.5259C6.24637 16.777 5.83934 16.777 5.58829 16.5259L0.188289 11.1259C-0.0627628 10.8749 -0.0627628 10.4678 0.188289 10.2168L5.33115 5.07393C5.5822 4.82288 5.98923 4.82288 6.24028 5.07393C6.49133 5.32499 6.49133 5.73202 6.24028 5.98307L2.19485 10.0285H14.7857C15.8508 10.0285 16.7143 9.16505 16.7143 8.09993V1.9285C16.7143 1.57346 17.0021 1.28564 17.3571 1.28564Z" fill="#353232"/>
</svg>
