<svg width="18" height="18" viewBox="0 0 18 18" fill="none" xmlns="http://www.w3.org/2000/svg">
<path d="M13.9874 11.3285C15.9003 11.9081 18 12.5444 18 9C18 4.02944 13.9706 0 9 0C4.02944 0 0 4.02944 0 9C0 13.9706 4.02944 18 9 18C11.2452 18 11.0547 16.3075 10.8551 14.5343C10.7157 13.296 10.5719 12.0183 11.25 11.25C11.773 10.6574 12.847 10.9829 13.9874 11.3285ZM9 5.625C8.06802 5.625 7.3125 4.86948 7.3125 3.9375C7.3125 3.00552 8.06802 2.25 9 2.25C9.93198 2.25 10.6875 3.00552 10.6875 3.9375C10.6875 4.86948 9.93198 5.625 9 5.625ZM14.0625 9C13.1305 9 12.375 8.24448 12.375 7.3125C12.375 6.38052 13.1305 5.625 14.0625 5.625C14.9945 5.625 15.75 6.38052 15.75 7.3125C15.75 8.24448 14.9945 9 14.0625 9ZM5.625 7.3125C5.625 8.24448 4.86948 9 3.9375 9C3.00552 9 2.25 8.24448 2.25 7.3125C2.25 6.38052 3.00552 5.625 3.9375 5.625C4.86948 5.625 5.625 6.38052 5.625 7.3125ZM6.1875 14.625C5.25552 14.625 4.5 13.8695 4.5 12.9375C4.5 12.0055 5.25552 11.25 6.1875 11.25C7.11948 11.25 7.875 12.0055 7.875 12.9375C7.875 13.8695 7.11948 14.625 6.1875 14.625Z" fill="#554E7F"/>
</svg>
