<svg width="21" height="20" viewBox="0 0 21 20" fill="none" xmlns="http://www.w3.org/2000/svg">
<path fill-rule="evenodd" clip-rule="evenodd" d="M7.10938 4.375C7.10938 4.02982 7.3892 3.75 7.73438 3.75H17.7344C18.0796 3.75 18.3594 4.02982 18.3594 4.375V15.625C18.3594 15.9702 18.0796 16.25 17.7344 16.25H7.73438C7.3892 16.25 7.10938 15.9702 7.10938 15.625V13.125C7.10938 12.7798 6.82955 12.5 6.48438 12.5C6.1392 12.5 5.85938 12.7798 5.85938 13.125V15.625C5.85938 16.6605 6.69884 17.5 7.73438 17.5H17.7344C18.7699 17.5 19.6094 16.6605 19.6094 15.625V4.375C19.6094 3.33947 18.7699 2.5 17.7344 2.5H7.73438C6.69884 2.5 5.85938 3.33947 5.85938 4.375V6.875C5.85938 7.22018 6.1392 7.5 6.48438 7.5C6.82955 7.5 7.10938 7.22018 7.10938 6.875V4.375Z" fill="#353232"/>
<path fill-rule="evenodd" clip-rule="evenodd" d="M14.4263 10.4419C14.6704 10.1979 14.6704 9.80214 14.4263 9.55806L10.6763 5.80806C10.4322 5.56398 10.0365 5.56398 9.79243 5.80806C9.54836 6.05214 9.54836 6.44786 9.79243 6.69194L12.4755 9.375H1.48438C1.1392 9.375 0.859375 9.65482 0.859375 10C0.859375 10.3452 1.1392 10.625 1.48438 10.625H12.4755L9.79243 13.3081C9.54836 13.5521 9.54836 13.9479 9.79243 14.1919C10.0365 14.436 10.4322 14.436 10.6763 14.1919L14.4263 10.4419Z" fill="#353232"/>
</svg>
