<svg width="20" height="20" viewBox="0 0 20 20" fill="none" xmlns="http://www.w3.org/2000/svg">
<path fill-rule="evenodd" clip-rule="evenodd" d="M6.875 4.375C6.875 4.02982 7.15482 3.75 7.5 3.75H17.5C17.8452 3.75 18.125 4.02982 18.125 4.375V15.625C18.125 15.9702 17.8452 16.25 17.5 16.25H7.5C7.15482 16.25 6.875 15.9702 6.875 15.625V13.125C6.875 12.7798 6.59518 12.5 6.25 12.5C5.90482 12.5 5.625 12.7798 5.625 13.125V15.625C5.625 16.6605 6.46447 17.5 7.5 17.5H17.5C18.5355 17.5 19.375 16.6605 19.375 15.625V4.375C19.375 3.33947 18.5355 2.5 17.5 2.5H7.5C6.46447 2.5 5.625 3.33947 5.625 4.375V6.875C5.625 7.22018 5.90482 7.5 6.25 7.5C6.59518 7.5 6.875 7.22018 6.875 6.875V4.375Z" fill="#F6F5FF"/>
<path fill-rule="evenodd" clip-rule="evenodd" d="M14.1919 10.4419C14.436 10.1979 14.436 9.80214 14.1919 9.55806L10.4419 5.80806C10.1979 5.56398 9.80214 5.56398 9.55806 5.80806C9.31398 6.05214 9.31398 6.44786 9.55806 6.69194L12.2411 9.375H1.25C0.904822 9.375 0.625 9.65482 0.625 10C0.625 10.3452 0.904822 10.625 1.25 10.625H12.2411L9.55806 13.3081C9.31398 13.5521 9.31398 13.9479 9.55806 14.1919C9.80214 14.436 10.1979 14.436 10.4419 14.1919L14.1919 10.4419Z" fill="#F6F5FF"/>
</svg>
