<svg width="20" height="20" viewBox="0 0 20 20" fill="none" xmlns="http://www.w3.org/2000/svg">
<path d="M18.3849 10.0505C18.3846 8.44818 17.9253 6.87947 17.0612 5.5301C16.1971 4.18074 14.9644 3.10721 13.5092 2.43662C12.0539 1.76603 10.437 1.52646 8.84983 1.74627C7.26266 1.96607 5.77169 2.63605 4.55345 3.67689C3.33521 4.71773 2.44072 6.08583 1.97585 7.61925C1.51099 9.15266 1.49524 10.7872 1.93045 12.3293C2.36566 13.8713 3.23362 15.2564 4.43157 16.3206C5.62951 17.3847 7.10728 18.0833 8.68993 18.3337V12.4742H6.56123V10.0505H8.68993V8.20322C8.68993 6.10177 9.94189 4.941 11.8568 4.941C12.4856 4.94972 13.113 5.00437 13.7339 5.1045V7.16822H12.6764C12.4962 7.14428 12.3129 7.16121 12.1401 7.21774C11.9673 7.27427 11.8095 7.36896 11.6783 7.49479C11.5471 7.62061 11.4458 7.77435 11.3821 7.94461C11.3184 8.11487 11.2938 8.29729 11.3102 8.47835V10.0505H13.6359L13.2639 12.4742H11.3102V18.3337C13.2826 18.0216 15.0789 17.0159 16.3758 15.4974C17.6728 13.9789 18.3852 12.0475 18.3849 10.0505Z" fill="white"/>
</svg>
