<svg width="21" height="21" viewBox="0 0 21 21" fill="none" xmlns="http://www.w3.org/2000/svg">
<path d="M18.6193 10.5886C18.619 8.98626 18.1596 7.41756 17.2955 6.06819C16.4315 4.71882 15.1988 3.6453 13.7436 2.97471C12.2883 2.30412 10.6714 2.06455 9.08421 2.28435C7.49703 2.50416 6.00607 3.17414 4.78783 4.21497C3.56959 5.25581 2.67509 6.62392 2.21023 8.15733C1.74537 9.69074 1.72961 11.3252 2.16482 12.8673C2.60004 14.4094 3.46799 15.7945 4.66594 16.8587C5.86389 17.9228 7.34166 18.6214 8.9243 18.8717V13.0123H6.79561V10.5886H8.9243V8.74131C8.9243 6.63986 10.1763 5.47908 12.0911 5.47908C12.72 5.48781 13.3474 5.54245 13.9683 5.64259V7.7063H12.9108C12.7306 7.68237 12.5473 7.6993 12.3745 7.75583C12.2017 7.81236 12.0439 7.90704 11.9126 8.03287C11.7814 8.1587 11.6802 8.31244 11.6165 8.4827C11.5528 8.65296 11.5282 8.83538 11.5446 9.01643V10.5886H13.8703L13.4982 13.0123H11.5446V18.8717C13.517 18.5597 15.3133 17.554 16.6102 16.0355C17.9072 14.517 18.6196 12.5855 18.6193 10.5886Z" fill="white" fill-opacity="0.5"/>
</svg>
