<svg width="32" height="32" viewBox="0 0 32 32" fill="none" xmlns="http://www.w3.org/2000/svg">
<rect width="32" height="32" fill="#302A54"/>
<path d="M15.9552 28.5C14.0379 28.5 12.357 28.0919 10.9124 27.2759C9.49415 26.4342 8.40418 25.3121 7.64251 23.9094C6.88084 22.4813 6.5 20.8873 6.5 19.1276C6.5 17.3679 6.88084 15.7867 7.64251 14.384C8.40418 12.9559 9.49415 11.8337 10.9124 11.0176C12.357 10.176 14.0379 9.75523 15.9552 9.75523C17.8725 9.75523 19.5403 10.176 20.9586 11.0176C22.4031 11.8337 23.5062 12.9559 24.2679 14.384C25.0296 15.7867 25.4104 17.3679 25.4104 19.1276C25.4104 20.8873 25.0296 22.4813 24.2679 23.9094C23.5062 25.3121 22.4031 26.4342 20.9586 27.2759C19.5403 28.0919 17.8725 28.5 15.9552 28.5ZM15.9552 26.7785C17.2947 26.7785 18.319 26.0772 19.0282 24.6745C19.7373 23.2719 20.0919 21.4229 20.0919 19.1276C20.0919 16.8323 19.7373 14.9834 19.0282 13.5807C18.319 12.178 17.2947 11.4767 15.9552 11.4767C14.6157 11.4767 13.5914 12.178 12.8823 13.5807C12.1731 14.9834 11.8186 16.8323 11.8186 19.1276C11.8186 21.4229 12.1731 23.2719 12.8823 24.6745C13.5914 26.0772 14.6157 26.7785 15.9552 26.7785Z" fill="#FF0044"/>
<path d="M25.5 6.05925C25.5 7.47269 24.32 8.61851 22.8643 8.61851C21.4087 8.61851 20.2287 7.47269 20.2287 6.05925C20.2287 4.64582 21.4087 3.5 22.8643 3.5C24.32 3.5 25.5 4.64582 25.5 6.05925Z" fill="#FF0044"/>
</svg>
