<svg width="18" height="18" viewBox="0 0 18 18" fill="none" xmlns="http://www.w3.org/2000/svg">
<path d="M5.0625 3.375C5.0625 1.8217 6.3217 0.5625 7.875 0.5625C9.4283 0.5625 10.6875 1.8217 10.6875 3.375V13.5C10.6875 14.432 9.93198 15.1875 9 15.1875C8.06802 15.1875 7.3125 14.432 7.3125 13.5V5.625C7.3125 5.31434 7.56434 5.0625 7.875 5.0625C8.18566 5.0625 8.4375 5.31434 8.4375 5.625V13.5C8.4375 13.8107 8.68934 14.0625 9 14.0625C9.31066 14.0625 9.5625 13.8107 9.5625 13.5V3.375C9.5625 2.44302 8.80698 1.6875 7.875 1.6875C6.94302 1.6875 6.1875 2.44302 6.1875 3.375V13.5C6.1875 15.0533 7.4467 16.3125 9 16.3125C10.5533 16.3125 11.8125 15.0533 11.8125 13.5V5.625C11.8125 5.31434 12.0643 5.0625 12.375 5.0625C12.6857 5.0625 12.9375 5.31434 12.9375 5.625V13.5C12.9375 15.6746 11.1746 17.4375 9 17.4375C6.82538 17.4375 5.0625 15.6746 5.0625 13.5V3.375Z" fill="#F6F5FF"/>
</svg>
