<svg width="15" height="14" viewBox="0 0 15 14" fill="none" xmlns="http://www.w3.org/2000/svg">
<path d="M0.00195312 2.625C0.00195312 1.6585 0.785455 0.875 1.75195 0.875H12.252C13.2185 0.875 14.002 1.6585 14.002 2.625V11.375C14.002 12.3415 13.2185 13.125 12.252 13.125H1.75195C0.785455 13.125 0.00195312 12.3415 0.00195312 11.375V2.625ZM0.876953 10.5V11.375C0.876953 11.8582 1.2687 12.25 1.75195 12.25H12.252C12.7352 12.25 13.127 11.8582 13.127 11.375V8.3125L9.82261 6.60869C9.65418 6.52447 9.45075 6.55748 9.31759 6.69064L6.07121 9.93703L3.74463 8.38598C3.57111 8.2703 3.34006 8.29317 3.19259 8.44064L0.876953 10.5ZM5.25195 4.8125C5.25195 4.08763 4.66433 3.5 3.93945 3.5C3.21458 3.5 2.62695 4.08763 2.62695 4.8125C2.62695 5.53737 3.21458 6.125 3.93945 6.125C4.66433 6.125 5.25195 5.53737 5.25195 4.8125Z" fill="#353232" fill-opacity="0.75"/>
</svg>
