<svg width="18" height="19" viewBox="0 0 18 19" fill="none" xmlns="http://www.w3.org/2000/svg">
<path fill-rule="evenodd" clip-rule="evenodd" d="M9.70345 2.17905C9.92648 2.27146 10.1291 2.40692 10.2998 2.57767L15.9618 8.23876C16.1327 8.40945 16.2683 8.61214 16.3608 8.83526C16.4533 9.05837 16.5009 9.29753 16.5009 9.53906C16.5009 9.78059 16.4533 10.0198 16.3608 10.2429C16.2683 10.466 16.1327 10.6687 15.9618 10.8394L10.2998 16.5005C10.1291 16.6712 9.92648 16.8067 9.70345 16.8991C9.48042 16.9915 9.24136 17.0391 8.99994 17.0391C8.75852 17.0391 8.51947 16.9915 8.29644 16.8991C8.07341 16.8067 7.87077 16.6712 7.7001 16.5005L2.03809 10.8394C1.8672 10.6687 1.73163 10.466 1.63913 10.2429C1.54663 10.0198 1.49902 9.78059 1.49902 9.53906C1.49902 9.29753 1.54663 9.05837 1.63913 8.83526C1.73163 8.61214 1.8672 8.40945 2.03809 8.23876L7.7001 2.57767C7.87077 2.40692 8.07341 2.27146 8.29644 2.17905C8.51947 2.08663 8.75852 2.03906 8.99994 2.03906C9.24136 2.03906 9.48042 2.08663 9.70345 2.17905ZM8.35084 11.1057C8.52299 11.2778 8.75648 11.3745 8.99994 11.3745C9.2434 11.3745 9.47689 11.2778 9.64904 11.1057C9.82119 10.9335 9.9179 10.7 9.9179 10.4566V5.86674C9.9179 5.62328 9.82119 5.38979 9.64904 5.21764C9.47689 5.04549 9.2434 4.94877 8.99994 4.94877C8.75648 4.94877 8.52299 5.04549 8.35084 5.21764C8.17869 5.38979 8.08197 5.62328 8.08197 5.86674V10.4566C8.08197 10.7 8.17869 10.9335 8.35084 11.1057ZM8.35084 13.8596C8.52299 14.0317 8.75648 14.1284 8.99994 14.1284C9.2434 14.1284 9.47689 14.0317 9.64904 13.8596C9.82119 13.6874 9.9179 13.4539 9.9179 13.2105C9.9179 12.967 9.82119 12.7335 9.64904 12.5614C9.47689 12.3892 9.2434 12.2925 8.99994 12.2925C8.75648 12.2925 8.52299 12.3892 8.35084 12.5614C8.17869 12.7335 8.08197 12.967 8.08197 13.2105C8.08197 13.4539 8.17869 13.6874 8.35084 13.8596Z" fill="#837CAA"/>
</svg>
