<svg width="16" height="16" viewBox="0 0 16 16" fill="none" xmlns="http://www.w3.org/2000/svg">
<path fill-rule="evenodd" clip-rule="evenodd" d="M8.00065 2.5455C4.98819 2.5455 2.54611 4.98758 2.54611 8.00004C2.54611 11.0125 4.98819 13.4546 8.00065 13.4546C11.0131 13.4546 13.4552 11.0125 13.4552 8.00004C13.4552 4.98758 11.0131 2.5455 8.00065 2.5455ZM1.33398 8.00004C1.33398 4.31814 4.31875 1.33337 8.00065 1.33337C11.6825 1.33337 14.6673 4.31814 14.6673 8.00004C14.6673 11.6819 11.6825 14.6667 8.00065 14.6667C4.31875 14.6667 1.33398 11.6819 1.33398 8.00004ZM7.39459 5.5758C7.39459 5.24108 7.66593 4.96974 8.00065 4.96974H8.00671C8.34143 4.96974 8.61277 5.24108 8.61277 5.5758C8.61277 5.91052 8.34143 6.18186 8.00671 6.18186H8.00065C7.66593 6.18186 7.39459 5.91052 7.39459 5.5758ZM8.00065 7.39398C8.33537 7.39398 8.60671 7.66532 8.60671 8.00004V10.4243C8.60671 10.759 8.33537 11.0303 8.00065 11.0303C7.66593 11.0303 7.39459 10.759 7.39459 10.4243V8.00004C7.39459 7.66532 7.66593 7.39398 8.00065 7.39398Z" fill="#554E7F"/>
</svg>
