<svg width="20" height="20" viewBox="0 0 20 20" fill="none" xmlns="http://www.w3.org/2000/svg">
<path fill-rule="evenodd" clip-rule="evenodd" d="M9.99935 3.1819C6.23377 3.1819 3.18117 6.2345 3.18117 10.0001C3.18117 13.7657 6.23377 16.8183 9.99935 16.8183C13.7649 16.8183 16.8175 13.7657 16.8175 10.0001C16.8175 6.2345 13.7649 3.1819 9.99935 3.1819ZM1.66602 10.0001C1.66602 5.39771 5.39698 1.66675 9.99935 1.66675C14.6017 1.66675 18.3327 5.39771 18.3327 10.0001C18.3327 14.6025 14.6017 18.3334 9.99935 18.3334C5.39698 18.3334 1.66602 14.6025 1.66602 10.0001ZM9.24177 6.96978C9.24177 6.55138 9.58095 6.2122 9.99935 6.2122H10.0069C10.4253 6.2122 10.7645 6.55138 10.7645 6.96978C10.7645 7.38818 10.4253 7.72735 10.0069 7.72735H9.99935C9.58095 7.72735 9.24177 7.38818 9.24177 6.96978ZM9.99935 9.24251C10.4177 9.24251 10.7569 9.58168 10.7569 10.0001V13.0304C10.7569 13.4488 10.4177 13.788 9.99935 13.788C9.58095 13.788 9.24177 13.4488 9.24177 13.0304V10.0001C9.24177 9.58168 9.58095 9.24251 9.99935 9.24251Z" fill="#FFF2F6"/>
</svg>
