<svg width="21" height="21" viewBox="0 0 21 21" fill="none" xmlns="http://www.w3.org/2000/svg">
<path d="M10.2329 3.70493C12.4549 3.70493 12.7215 3.71326 13.5998 3.75326C14.1283 3.75949 14.6518 3.85664 15.1474 4.04045C15.5092 4.17401 15.8365 4.38699 16.1051 4.66372C16.3818 4.93235 16.5948 5.2596 16.7284 5.6214C16.9122 6.11698 17.0093 6.6405 17.0155 7.16903C17.0555 8.04894 17.0655 8.31558 17.0655 10.5376C17.0655 12.7596 17.0572 13.0262 17.0172 13.9045C17.011 14.433 16.9138 14.9565 16.73 15.4521C16.5913 15.8113 16.379 16.1375 16.1067 16.4098C15.8345 16.682 15.5083 16.8943 15.1491 17.033C14.6535 17.2168 14.13 17.314 13.6014 17.3202C12.7232 17.3602 12.4593 17.3686 10.2346 17.3686C8.00978 17.3686 7.74592 17.3602 6.86767 17.3202C6.33914 17.314 5.81563 17.2168 5.32005 17.033C4.95825 16.8995 4.63099 16.6865 4.36237 16.4098C4.08564 16.1411 3.87265 15.8139 3.7391 15.4521C3.55529 14.9565 3.45814 14.433 3.4519 13.9045C3.41024 13.0262 3.40024 12.7624 3.40024 10.5376C3.40024 8.3128 3.40857 8.04894 3.44857 7.17069C3.45481 6.64216 3.55196 6.11865 3.73576 5.62307C3.86981 5.26111 4.08337 4.93384 4.3607 4.66539C4.62933 4.38866 4.95658 4.17568 5.31838 4.04212C5.81396 3.85831 6.33748 3.76116 6.86601 3.75492C7.74425 3.71493 8.01089 3.70493 10.2329 3.70493ZM10.2329 2.20508C7.96978 2.20508 7.68592 2.21452 6.79768 2.25507C6.1062 2.26972 5.42218 2.40119 4.77455 2.64392C4.21892 2.85304 3.71546 3.18059 3.29914 3.60383C2.8753 4.01998 2.54717 4.52345 2.33757 5.07924C2.09484 5.72687 1.96337 6.41089 1.94872 7.10237C1.90983 7.99061 1.90039 8.27447 1.90039 10.5376C1.90039 12.8007 1.90983 13.0845 1.95039 13.9728C1.96504 14.6643 2.09651 15.3483 2.33924 15.9959C2.54884 16.5517 2.87697 17.0552 3.30081 17.4713C3.71696 17.8952 4.22043 18.2233 4.77621 18.4329C5.42385 18.6756 6.10787 18.8071 6.79935 18.8218C7.68815 18.8623 7.97145 18.8717 10.2346 18.8717C12.4977 18.8717 12.7815 18.8623 13.6698 18.8218C14.3612 18.8071 15.0453 18.6756 15.6929 18.4329C16.2462 18.2184 16.7487 17.8909 17.1683 17.4713C17.5879 17.0517 17.9154 16.5492 18.1299 15.9959C18.3726 15.3483 18.5041 14.6643 18.5187 13.9728C18.5593 13.084 18.5687 12.8007 18.5687 10.5376C18.5687 8.27447 18.5593 7.99061 18.5187 7.10237C18.5041 6.41089 18.3726 5.72687 18.1299 5.07924C17.9203 4.52345 17.5921 4.01998 17.1683 3.60383C16.7522 3.17999 16.2487 2.85186 15.6929 2.64226C15.0453 2.39953 14.3612 2.26806 13.6698 2.25341C12.7799 2.21452 12.496 2.20508 10.2329 2.20508Z" fill="white" fill-opacity="0.5"/>
<path d="M10.2329 6.26023C9.3869 6.26023 8.55992 6.51109 7.85651 6.98109C7.15311 7.45109 6.60487 8.11912 6.28112 8.90071C5.95738 9.68229 5.87268 10.5423 6.03772 11.372C6.20276 12.2018 6.61014 12.9639 7.20834 13.5621C7.80654 14.1603 8.56869 14.5677 9.39841 14.7327C10.2281 14.8978 11.0882 14.8131 11.8698 14.4893C12.6513 14.1656 13.3194 13.6174 13.7894 12.9139C14.2594 12.2105 14.5102 11.3836 14.5102 10.5376C14.5102 9.40316 14.0596 8.31519 13.2574 7.51304C12.4553 6.71088 11.3673 6.26023 10.2329 6.26023ZM10.2329 13.3151C9.68354 13.3151 9.14654 13.1522 8.68978 12.847C8.23303 12.5418 7.87703 12.108 7.6668 11.6005C7.45658 11.093 7.40158 10.5345 7.50875 9.99572C7.61592 9.45693 7.88045 8.96203 8.26889 8.57359C8.65733 8.18515 9.15224 7.92062 9.69102 7.81345C10.2298 7.70628 10.7883 7.76128 11.2958 7.9715C11.8033 8.18173 12.2371 8.53772 12.5423 8.99448C12.8475 9.45124 13.0104 9.98824 13.0104 10.5376C13.0104 11.2742 12.7178 11.9807 12.1969 12.5016C11.676 13.0225 10.9695 13.3151 10.2329 13.3151Z" fill="white" fill-opacity="0.5"/>
<path d="M14.6808 7.08959C15.233 7.08959 15.6807 6.64192 15.6807 6.08969C15.6807 5.53746 15.233 5.08979 14.6808 5.08979C14.1285 5.08979 13.6809 5.53746 13.6809 6.08969C13.6809 6.64192 14.1285 7.08959 14.6808 7.08959Z" fill="white" fill-opacity="0.5"/>
</svg>
