<svg width="20" height="20" viewBox="0 0 20 20" fill="none" xmlns="http://www.w3.org/2000/svg">
<path d="M9.99852 3.16684C12.2205 3.16684 12.4872 3.17517 13.3654 3.21517C13.8939 3.22141 14.4174 3.31856 14.913 3.50236C15.2748 3.63592 15.6021 3.8489 15.8707 4.12564C16.1474 4.39426 16.3604 4.72151 16.494 5.08332C16.6778 5.5789 16.7749 6.10241 16.7812 6.63094C16.8212 7.51085 16.8312 7.77749 16.8312 9.99949C16.8312 12.2215 16.8228 12.4881 16.7828 13.3664C16.7766 13.8949 16.6795 14.4184 16.4956 14.914C16.3569 15.2732 16.1446 15.5994 15.8724 15.8717C15.6001 16.1439 15.2739 16.3563 14.9147 16.495C14.4191 16.6788 13.8956 16.7759 13.3671 16.7821C12.4888 16.8221 12.225 16.8305 10.0002 16.8305C7.7754 16.8305 7.51154 16.8221 6.6333 16.7821C6.10477 16.7759 5.58125 16.6788 5.08567 16.495C4.72387 16.3614 4.39662 16.1484 4.12799 15.8717C3.85126 15.6031 3.63828 15.2758 3.50472 14.914C3.32091 14.4184 3.22376 13.8949 3.21753 13.3664C3.17586 12.4881 3.16587 12.2243 3.16587 9.99949C3.16587 7.77471 3.1742 7.51085 3.21419 6.63261C3.22043 6.10408 3.31758 5.58056 3.50139 5.08498C3.63543 4.72302 3.84899 4.39576 4.12633 4.1273C4.39495 3.85057 4.7222 3.63759 5.08401 3.50403C5.57959 3.32022 6.1031 3.22307 6.63163 3.21684C7.50988 3.17684 7.77652 3.16684 9.99852 3.16684ZM9.99852 1.66699C7.73541 1.66699 7.45155 1.67644 6.5633 1.71699C5.87183 1.73164 5.18781 1.86311 4.54017 2.10584C3.98454 2.31495 3.48109 2.6425 3.06476 3.06574C2.64092 3.4819 2.3128 3.98537 2.10319 4.54115C1.86046 5.18879 1.72899 5.87281 1.71434 6.56428C1.67546 7.45252 1.66602 7.73639 1.66602 9.99949C1.66602 12.2626 1.67546 12.5465 1.71601 13.4347C1.73066 14.1262 1.86213 14.8102 2.10486 15.4578C2.31446 16.0136 2.64259 16.5171 3.06643 16.9332C3.48259 17.3571 3.98606 17.6852 4.54184 17.8948C5.18948 18.1375 5.8735 18.269 6.56497 18.2837C7.45377 18.3242 7.73708 18.3337 10.0002 18.3337C12.2633 18.3337 12.5471 18.3242 13.4354 18.2837C14.1269 18.269 14.8109 18.1375 15.4585 17.8948C16.0118 17.6803 16.5143 17.3529 16.9339 16.9332C17.3535 16.5136 17.681 16.0111 17.8955 15.4578C18.1382 14.8102 18.2697 14.1262 18.2844 13.4347C18.3249 12.5459 18.3343 12.2626 18.3343 9.99949C18.3343 7.73639 18.3249 7.45252 18.2844 6.56428C18.2697 5.87281 18.1382 5.18879 17.8955 4.54115C17.6859 3.98537 17.3578 3.4819 16.9339 3.06574C16.5178 2.6419 16.0143 2.31377 15.4585 2.10417C14.8109 1.86144 14.1269 1.72997 13.4354 1.71532C12.5455 1.67644 12.2616 1.66699 9.99852 1.66699Z" fill="white"/>
<path d="M9.99851 5.72214C9.15253 5.72214 8.32554 5.973 7.62214 6.44301C6.91873 6.91301 6.37049 7.58104 6.04675 8.36262C5.72301 9.14421 5.6383 10.0042 5.80334 10.834C5.96839 11.6637 6.37576 12.4258 6.97396 13.024C7.57216 13.6222 8.33431 14.0296 9.16404 14.1947C9.99376 14.3597 10.8538 14.275 11.6354 13.9512C12.417 13.6275 13.085 13.0793 13.555 12.3759C14.025 11.6725 14.2759 10.8455 14.2759 9.99949C14.2759 8.86507 13.8252 7.77711 13.023 6.97495C12.2209 6.17279 11.1329 5.72214 9.99851 5.72214ZM9.99851 12.777C9.44917 12.777 8.91217 12.6141 8.45541 12.3089C7.99865 12.0037 7.64265 11.5699 7.43243 11.0624C7.22221 10.5549 7.1672 9.99641 7.27437 9.45763C7.38154 8.91885 7.64608 8.42394 8.03452 8.0355C8.42296 7.64706 8.91786 7.38253 9.45664 7.27536C9.99542 7.16819 10.5539 7.22319 11.0614 7.43342C11.5689 7.64364 12.0027 7.99964 12.3079 8.4564C12.6131 8.91315 12.776 9.45016 12.776 9.99949C12.776 10.7361 12.4834 11.4426 11.9625 11.9635C11.4416 12.4844 10.7351 12.777 9.99851 12.777Z" fill="white"/>
<path d="M14.4464 6.5515C14.9986 6.5515 15.4463 6.10383 15.4463 5.5516C15.4463 4.99937 14.9986 4.5517 14.4464 4.5517C13.8942 4.5517 13.4465 4.99937 13.4465 5.5516C13.4465 6.10383 13.8942 6.5515 14.4464 6.5515Z" fill="white"/>
</svg>
