<svg width="19" height="18" viewBox="0 0 19 18" fill="none" xmlns="http://www.w3.org/2000/svg">
<path fill-rule="evenodd" clip-rule="evenodd" d="M10.1264 4.57031C10.1264 4.29848 9.90606 4.07812 9.63423 4.07812H3.10156C2.28608 4.07812 1.625 4.7392 1.625 5.55469V15.3984C1.625 16.2139 2.28608 16.875 3.10156 16.875H12.9453C13.7608 16.875 14.4219 16.2139 14.4219 15.3984V8.86577C14.4219 8.59394 14.2015 8.37358 13.9297 8.37358C13.6579 8.37358 13.4375 8.59394 13.4375 8.86577V15.3984C13.4375 15.6703 13.2171 15.8906 12.9453 15.8906H3.10156C2.82973 15.8906 2.60938 15.6703 2.60938 15.3984V5.55469C2.60938 5.28286 2.82973 5.0625 3.10156 5.0625H9.63423C9.90606 5.0625 10.1264 4.84214 10.1264 4.57031Z" fill="#837CAA"/>
<path fill-rule="evenodd" clip-rule="evenodd" d="M17.375 1.61719C17.375 1.34536 17.1546 1.125 16.8828 1.125H11.9609C11.6891 1.125 11.4688 1.34536 11.4688 1.61719C11.4688 1.88902 11.6891 2.10938 11.9609 2.10938H15.6946L7.67541 10.1285C7.4832 10.3207 7.4832 10.6324 7.67541 10.8246C7.86762 11.0168 8.17925 11.0168 8.37147 10.8246L16.3906 2.80543V6.53906C16.3906 6.81089 16.611 7.03125 16.8828 7.03125C17.1546 7.03125 17.375 6.81089 17.375 6.53906V1.61719Z" fill="#837CAA"/>
</svg>
