<svg width="21" height="20" viewBox="0 0 21 20" fill="none" xmlns="http://www.w3.org/2000/svg">
<path fill-rule="evenodd" clip-rule="evenodd" d="M11.4304 5.07812C11.4304 4.77609 11.1856 4.53125 10.8835 4.53125H3.625C2.71891 4.53125 1.98438 5.26578 1.98438 6.17188V17.1094C1.98438 18.0155 2.71891 18.75 3.625 18.75H14.5625C15.4686 18.75 16.2031 18.0155 16.2031 17.1094V9.85085C16.2031 9.54882 15.9583 9.30398 15.6562 9.30398C15.3542 9.30398 15.1094 9.54882 15.1094 9.85085V17.1094C15.1094 17.4114 14.8645 17.6562 14.5625 17.6562H3.625C3.32297 17.6562 3.07812 17.4114 3.07812 17.1094V6.17188C3.07812 5.86984 3.32297 5.625 3.625 5.625H10.8835C11.1856 5.625 11.4304 5.38016 11.4304 5.07812Z" fill="#353232"/>
<path fill-rule="evenodd" clip-rule="evenodd" d="M19.4844 1.79688C19.4844 1.49484 19.2395 1.25 18.9375 1.25H13.4688C13.1667 1.25 12.9219 1.49484 12.9219 1.79688C12.9219 2.09891 13.1667 2.34375 13.4688 2.34375H17.6172L8.70705 11.2539C8.49348 11.4675 8.49348 11.8138 8.70705 12.0273C8.92062 12.2409 9.26688 12.2409 9.48045 12.0273L18.3906 3.11715V7.26562C18.3906 7.56766 18.6355 7.8125 18.9375 7.8125C19.2395 7.8125 19.4844 7.56766 19.4844 7.26562V1.79688Z" fill="#353232"/>
</svg>
