<svg width="21" height="20" viewBox="0 0 21 20" fill="none" xmlns="http://www.w3.org/2000/svg">
<path fill-rule="evenodd" clip-rule="evenodd" d="M11.196 5.07812C11.196 4.77609 10.9512 4.53125 10.6491 4.53125H3.39062C2.48453 4.53125 1.75 5.26578 1.75 6.17187V17.1094C1.75 18.0155 2.48453 18.75 3.39062 18.75H14.3281C15.2342 18.75 15.9687 18.0155 15.9687 17.1094V9.85085C15.9687 9.54882 15.7239 9.30398 15.4219 9.30398C15.1198 9.30398 14.875 9.54882 14.875 9.85085V17.1094C14.875 17.4114 14.6302 17.6562 14.3281 17.6562H3.39062C3.08859 17.6562 2.84375 17.4114 2.84375 17.1094V6.17187C2.84375 5.86984 3.08859 5.625 3.39062 5.625H10.6491C10.9512 5.625 11.196 5.38016 11.196 5.07812Z" fill="#F6F5FF"/>
<path fill-rule="evenodd" clip-rule="evenodd" d="M19.25 1.79687C19.25 1.49484 19.0052 1.25 18.7031 1.25H13.2344C12.9323 1.25 12.6875 1.49484 12.6875 1.79687C12.6875 2.09891 12.9323 2.34375 13.2344 2.34375H17.3829L8.47268 11.2539C8.25911 11.4675 8.25911 11.8138 8.47268 12.0273C8.68624 12.2409 9.03251 12.2409 9.24607 12.0273L18.1562 3.11715V7.26562C18.1562 7.56766 18.4011 7.8125 18.7031 7.8125C19.0052 7.8125 19.25 7.56766 19.25 7.26562V1.79687Z" fill="#F6F5FF"/>
</svg>
