<svg width="21" height="20" viewBox="0 0 21 20" fill="none" xmlns="http://www.w3.org/2000/svg">
<path fill-rule="evenodd" clip-rule="evenodd" d="M8.625 15C12.422 15 15.5 11.922 15.5 8.125C15.5 4.32804 12.422 1.25 8.625 1.25C4.82804 1.25 1.75 4.32804 1.75 8.125C1.75 11.922 4.82804 15 8.625 15ZM16.75 8.125C16.75 12.6123 13.1123 16.25 8.625 16.25C4.13769 16.25 0.5 12.6123 0.5 8.125C0.5 3.63769 4.13769 0 8.625 0C13.1123 0 16.75 3.63769 16.75 8.125Z" fill="#F6F5FF"/>
<path d="M13.4299 14.6777C13.4667 14.7277 13.5078 14.7756 13.553 14.8208L18.3661 19.6339C18.8543 20.122 19.6457 20.122 20.1339 19.6339C20.622 19.1457 20.622 18.3543 20.1339 17.8661L15.3208 13.053C15.2756 13.0078 15.2277 12.9667 15.1777 12.9299C14.6874 13.5974 14.0974 14.1874 13.4299 14.6777Z" fill="#F6F5FF"/>
<path fill-rule="evenodd" clip-rule="evenodd" d="M8.625 3.75C8.97018 3.75 9.25 4.02982 9.25 4.375V7.5H12.375C12.7202 7.5 13 7.77982 13 8.125C13 8.47018 12.7202 8.75 12.375 8.75H9.25V11.875C9.25 12.2202 8.97018 12.5 8.625 12.5C8.27982 12.5 8 12.2202 8 11.875V8.75H4.875C4.52982 8.75 4.25 8.47018 4.25 8.125C4.25 7.77982 4.52982 7.5 4.875 7.5H8V4.375C8 4.02982 8.27982 3.75 8.625 3.75Z" fill="#F6F5FF"/>
</svg>
