<svg width="21" height="20" viewBox="0 0 21 20" fill="none" xmlns="http://www.w3.org/2000/svg">
<path d="M19.1645 9.47966C19.1645 13.795 15.1664 17.2933 10.2346 17.2933C9.32288 17.2933 8.4431 17.1738 7.61458 16.9516C6.96287 17.2819 5.46572 17.9166 2.94747 18.3289C2.72533 18.3653 2.55528 18.1329 2.64303 17.9256C3.03829 16.9918 3.39484 15.7486 3.50343 14.6144C2.13412 13.2412 1.30469 11.4452 1.30469 9.47966C1.30469 5.1643 5.30273 1.66602 10.2346 1.66602C15.1664 1.66602 19.1645 5.1643 19.1645 9.47966ZM6.88586 9.47966C6.88586 8.86318 6.38611 8.36343 5.76963 8.36343C5.15315 8.36343 4.65339 8.86318 4.65339 9.47966C4.65339 10.0961 5.15315 10.5959 5.76963 10.5959C6.38611 10.5959 6.88586 10.0961 6.88586 9.47966ZM11.3508 9.47966C11.3508 8.86318 10.8511 8.36343 10.2346 8.36343C9.61809 8.36343 9.11834 8.86318 9.11834 9.47966C9.11834 10.0961 9.61809 10.5959 10.2346 10.5959C10.8511 10.5959 11.3508 10.0961 11.3508 9.47966ZM14.6995 10.5959C15.316 10.5959 15.8157 10.0961 15.8157 9.47966C15.8157 8.86318 15.316 8.36343 14.6995 8.36343C14.083 8.36343 13.5833 8.86318 13.5833 9.47966C13.5833 10.0961 14.083 10.5959 14.6995 10.5959Z" fill="#FFF2F6"/>
</svg>
