<svg width="18" height="18" viewBox="0 0 18 18" fill="none" xmlns="http://www.w3.org/2000/svg">
<path d="M17.0367 8.53228C17.0367 12.4161 13.4384 15.5646 8.99979 15.5646C8.17926 15.5646 7.38746 15.457 6.6418 15.257C6.05525 15.5543 4.70782 16.1256 2.4414 16.4966C2.24147 16.5293 2.08842 16.3202 2.1674 16.1336C2.52314 15.2932 2.84403 14.1743 2.94176 13.1536C1.70938 11.9177 0.962891 10.3013 0.962891 8.53228C0.962891 4.64846 4.56113 1.5 8.99979 1.5C13.4384 1.5 17.0367 4.64846 17.0367 8.53228ZM5.98595 8.53228C5.98595 7.97745 5.53617 7.52767 4.98134 7.52767C4.42651 7.52767 3.97673 7.97745 3.97673 8.53228C3.97673 9.08711 4.42651 9.53689 4.98134 9.53689C5.53617 9.53689 5.98595 9.08711 5.98595 8.53228ZM10.0044 8.53228C10.0044 7.97745 9.55462 7.52767 8.99979 7.52767C8.44495 7.52767 7.99517 7.97745 7.99517 8.53228C7.99517 9.08711 8.44495 9.53689 8.99979 9.53689C9.55462 9.53689 10.0044 9.08711 10.0044 8.53228ZM13.0182 9.53689C13.5731 9.53689 14.0228 9.08711 14.0228 8.53228C14.0228 7.97745 13.5731 7.52767 13.0182 7.52767C12.4634 7.52767 12.0136 7.97745 12.0136 8.53228C12.0136 9.08711 12.4634 9.53689 13.0182 9.53689Z" fill="#5D9EFF"/>
</svg>
