<svg width="19" height="18" viewBox="0 0 19 18" fill="none" xmlns="http://www.w3.org/2000/svg">
<path d="M10.2918 9.00014L15.0168 4.28264C15.1581 4.14141 15.2374 3.94987 15.2374 3.75014C15.2374 3.55041 15.1581 3.35887 15.0168 3.21764C14.8756 3.07641 14.6841 2.99707 14.4843 2.99707C14.2846 2.99707 14.0931 3.07641 13.9518 3.21764L9.23433 7.94264L4.51683 3.21764C4.3756 3.07641 4.18406 2.99707 3.98433 2.99707C3.7846 2.99707 3.59306 3.07641 3.45183 3.21764C3.3106 3.35887 3.23126 3.55041 3.23126 3.75014C3.23126 3.94987 3.3106 4.14141 3.45183 4.28264L8.17683 9.00014L3.45183 13.7176C3.38153 13.7874 3.32574 13.8703 3.28766 13.9617C3.24958 14.0531 3.22998 14.1511 3.22998 14.2501C3.22998 14.3491 3.24958 14.4472 3.28766 14.5386C3.32574 14.63 3.38153 14.7129 3.45183 14.7826C3.52155 14.8529 3.6045 14.9087 3.6959 14.9468C3.78729 14.9849 3.88532 15.0045 3.98433 15.0045C4.08334 15.0045 4.18137 14.9849 4.27276 14.9468C4.36416 14.9087 4.44711 14.8529 4.51683 14.7826L9.23433 10.0576L13.9518 14.7826C14.0216 14.8529 14.1045 14.9087 14.1959 14.9468C14.2873 14.9849 14.3853 15.0045 14.4843 15.0045C14.5833 15.0045 14.6814 14.9849 14.7728 14.9468C14.8642 14.9087 14.9471 14.8529 15.0168 14.7826C15.0871 14.7129 15.1429 14.63 15.181 14.5386C15.2191 14.4472 15.2387 14.3491 15.2387 14.2501C15.2387 14.1511 15.2191 14.0531 15.181 13.9617C15.1429 13.8703 15.0871 13.7874 15.0168 13.7176L10.2918 9.00014Z" fill="#F6F5FF"/>
</svg>
