<svg width="115" height="18" viewBox="0 0 115 18" fill="none" xmlns="http://www.w3.org/2000/svg">
<path d="M7.81338 13.545V5.732H3.45838L3.38038 7.942C3.35438 8.62667 3.31104 9.28533 3.25038 9.918C3.19838 10.542 3.11171 11.1053 2.99038 11.608C2.87771 12.102 2.72171 12.505 2.52238 12.817C2.33171 13.129 2.08038 13.311 1.76838 13.363L0.715375 13.168C1.06204 13.1853 1.34804 13.0597 1.57338 12.791C1.80738 12.5223 1.98504 12.1453 2.10638 11.66C2.23638 11.1747 2.33171 10.607 2.39238 9.957C2.45304 9.307 2.49638 8.605 2.52238 7.851L2.62638 4.9H8.76238V13.545H7.81338ZM0.377375 16.041L0.390375 13.168H10.1274V16.041H9.23038V14H1.28738L1.27438 16.041H0.377375ZM14.6032 14.065C13.8926 14.065 13.2686 13.9177 12.7312 13.623C12.1939 13.3197 11.7736 12.908 11.4702 12.388C11.1669 11.8593 11.0152 11.257 11.0152 10.581C11.0152 9.905 11.1582 9.307 11.4442 8.787C11.7389 8.267 12.1376 7.85967 12.6402 7.565C13.1516 7.26167 13.7236 7.11 14.3562 7.11C14.9976 7.11 15.5652 7.25733 16.0592 7.552C16.5619 7.838 16.9562 8.24533 17.2422 8.774C17.5282 9.294 17.6712 9.89633 17.6712 10.581C17.6712 10.6243 17.6669 10.672 17.6582 10.724C17.6582 10.7673 17.6582 10.815 17.6582 10.867H11.7172V10.178H17.1642L16.8002 10.451C16.8002 9.957 16.6919 9.51933 16.4752 9.138C16.2672 8.748 15.9812 8.44467 15.6172 8.228C15.2532 8.01133 14.8329 7.903 14.3562 7.903C13.8882 7.903 13.4679 8.01133 13.0952 8.228C12.7226 8.44467 12.4322 8.748 12.2242 9.138C12.0162 9.528 11.9122 9.97433 11.9122 10.477V10.62C11.9122 11.14 12.0249 11.5993 12.2502 11.998C12.4842 12.388 12.8049 12.6957 13.2122 12.921C13.6282 13.1377 14.1006 13.246 14.6292 13.246C15.0452 13.246 15.4309 13.1723 15.7862 13.025C16.1502 12.8777 16.4622 12.6523 16.7222 12.349L17.2422 12.947C16.9389 13.311 16.5576 13.5883 16.0982 13.779C15.6476 13.9697 15.1492 14.065 14.6032 14.065ZM20.7097 14V7.734L20.9437 7.981H18.1227V7.175H24.2197V7.981H21.3987L21.6327 7.734V14H20.7097ZM29.7922 14V12.492L29.7532 12.245V9.723C29.7532 9.14233 29.5885 8.696 29.2592 8.384C28.9385 8.072 28.4575 7.916 27.8162 7.916C27.3742 7.916 26.9539 7.98967 26.5552 8.137C26.1565 8.28433 25.8185 8.47933 25.5412 8.722L25.1252 8.033C25.4719 7.73833 25.8879 7.513 26.3732 7.357C26.8585 7.19233 27.3699 7.11 27.9072 7.11C28.7912 7.11 29.4715 7.331 29.9482 7.773C30.4335 8.20633 30.6762 8.86933 30.6762 9.762V14H29.7922ZM27.4392 14.065C26.9279 14.065 26.4815 13.9827 26.1002 13.818C25.7275 13.6447 25.4415 13.4107 25.2422 13.116C25.0429 12.8127 24.9432 12.466 24.9432 12.076C24.9432 11.7207 25.0255 11.4 25.1902 11.114C25.3635 10.8193 25.6409 10.5853 26.0222 10.412C26.4122 10.23 26.9322 10.139 27.5822 10.139H29.9352V10.828H27.6082C26.9495 10.828 26.4902 10.945 26.2302 11.179C25.9789 11.413 25.8532 11.7033 25.8532 12.05C25.8532 12.44 26.0049 12.752 26.3082 12.986C26.6115 13.22 27.0362 13.337 27.5822 13.337C28.1022 13.337 28.5485 13.22 28.9212 12.986C29.3025 12.7433 29.5799 12.3967 29.7532 11.946L29.9612 12.583C29.7879 13.0337 29.4845 13.3933 29.0512 13.662C28.6265 13.9307 28.0892 14.065 27.4392 14.065ZM31.8853 13.987L31.9503 13.194C32.011 13.2027 32.0673 13.2157 32.1193 13.233C32.18 13.2417 32.232 13.246 32.2753 13.246C32.5526 13.246 32.7736 13.142 32.9383 12.934C33.1116 12.726 33.2416 12.4487 33.3283 12.102C33.415 11.7553 33.4756 11.3653 33.5103 10.932C33.545 10.49 33.5753 10.048 33.6013 9.606L33.7183 7.175H38.7233V14H37.8003V7.708L38.0343 7.981H34.3163L34.5373 7.695L34.4333 9.671C34.4073 10.2603 34.3596 10.8237 34.2903 11.361C34.2296 11.8983 34.13 12.3707 33.9913 12.778C33.8613 13.1853 33.6793 13.506 33.4453 13.74C33.2113 13.9653 32.9123 14.078 32.5483 14.078C32.4443 14.078 32.336 14.0693 32.2233 14.052C32.1193 14.0347 32.0066 14.013 31.8853 13.987ZM44.2852 9.58C45.1432 9.58867 45.7932 9.77933 46.2352 10.152C46.6858 10.5247 46.9112 11.062 46.9112 11.764C46.9112 12.492 46.6685 13.051 46.1832 13.441C45.7065 13.831 45.0132 14.0217 44.1032 14.013L41.3472 14V7.175H42.2702V9.554L44.2852 9.58ZM44.0512 13.311C44.6838 13.3197 45.1605 13.194 45.4812 12.934C45.8105 12.6653 45.9752 12.2753 45.9752 11.764C45.9752 11.2527 45.8148 10.88 45.4942 10.646C45.1735 10.4033 44.6925 10.2777 44.0512 10.269L42.2702 10.243V13.285L44.0512 13.311ZM48.6724 14V7.175H49.5954V10.191H53.8984V7.175H54.8214V14H53.8984V10.984H49.5954V14H48.6724ZM57.4448 14V7.175H58.3678V14H57.4448ZM57.9128 5.667C57.7222 5.667 57.5618 5.602 57.4318 5.472C57.3018 5.342 57.2368 5.186 57.2368 5.004C57.2368 4.822 57.3018 4.67033 57.4318 4.549C57.5618 4.419 57.7222 4.354 57.9128 4.354C58.1035 4.354 58.2638 4.41467 58.3938 4.536C58.5238 4.65733 58.5888 4.809 58.5888 4.991C58.5888 5.18167 58.5238 5.342 58.3938 5.472C58.2725 5.602 58.1122 5.667 57.9128 5.667ZM65.4845 13.194L65.2765 13.441V7.175H66.1995V13.441L65.9525 13.194H69.7615L69.5145 13.441V7.175H70.4375V14H60.9995V7.175H61.9225V13.441L61.6885 13.194H65.4845ZM75.9851 14.065C75.2744 14.065 74.6504 13.9177 74.1131 13.623C73.5757 13.3197 73.1554 12.908 72.8521 12.388C72.5487 11.8593 72.3971 11.257 72.3971 10.581C72.3971 9.905 72.5401 9.307 72.8261 8.787C73.1207 8.267 73.5194 7.85967 74.0221 7.565C74.5334 7.26167 75.1054 7.11 75.7381 7.11C76.3794 7.11 76.9471 7.25733 77.4411 7.552C77.9437 7.838 78.3381 8.24533 78.6241 8.774C78.9101 9.294 79.0531 9.89633 79.0531 10.581C79.0531 10.6243 79.0487 10.672 79.0401 10.724C79.0401 10.7673 79.0401 10.815 79.0401 10.867H73.0991V10.178H78.5461L78.1821 10.451C78.1821 9.957 78.0737 9.51933 77.8571 9.138C77.6491 8.748 77.3631 8.44467 76.9991 8.228C76.6351 8.01133 76.2147 7.903 75.7381 7.903C75.2701 7.903 74.8497 8.01133 74.4771 8.228C74.1044 8.44467 73.8141 8.748 73.6061 9.138C73.3981 9.528 73.2941 9.97433 73.2941 10.477V10.62C73.2941 11.14 73.4067 11.5993 73.6321 11.998C73.8661 12.388 74.1867 12.6957 74.5941 12.921C75.0101 13.1377 75.4824 13.246 76.0111 13.246C76.4271 13.246 76.8127 13.1723 77.1681 13.025C77.5321 12.8777 77.8441 12.6523 78.1041 12.349L78.6241 12.947C78.3207 13.311 77.9394 13.5883 77.4801 13.779C77.0294 13.9697 76.5311 14.065 75.9851 14.065Z" fill="#F6F5FF"/>
<path d="M114.588 9.35355C114.783 9.15829 114.783 8.84171 114.588 8.64645L111.406 5.46447C111.211 5.2692 110.894 5.2692 110.699 5.46447C110.504 5.65973 110.504 5.97631 110.699 6.17157L113.527 9L110.699 11.8284C110.504 12.0237 110.504 12.3403 110.699 12.5355C110.894 12.7308 111.211 12.7308 111.406 12.5355L114.588 9.35355ZM88.2344 9.5H114.234V8.5H88.2344V9.5Z" fill="#FF0044"/>
</svg>
