<svg width="19" height="18" viewBox="0 0 19 18" fill="none" xmlns="http://www.w3.org/2000/svg">
<path fill-rule="evenodd" clip-rule="evenodd" d="M12.8516 4.99219V5.4375H15.9688V14.3438C15.9688 15.3275 15.1713 16.125 14.1875 16.125H5.28125C4.29749 16.125 3.5 15.3275 3.5 14.3438V5.4375H6.61719V4.99219C6.61719 3.27061 8.0128 1.875 9.73438 1.875C11.456 1.875 12.8516 3.27061 12.8516 4.99219ZM11.9609 4.99219C11.9609 3.76249 10.9641 2.76562 9.73438 2.76562C8.50468 2.76562 7.50781 3.76249 7.50781 4.99219V5.4375H11.9609V4.99219ZM10.1797 9C10.1797 8.75406 9.98031 8.55469 9.73438 8.55469C9.48844 8.55469 9.28906 8.75406 9.28906 9V10.3359H7.95312C7.70719 10.3359 7.50781 10.5353 7.50781 10.7812C7.50781 11.0272 7.70719 11.2266 7.95312 11.2266H9.28906V12.5625C9.28906 12.8084 9.48844 13.0078 9.73438 13.0078C9.98031 13.0078 10.1797 12.8084 10.1797 12.5625V11.2266H11.5156C11.7616 11.2266 11.9609 11.0272 11.9609 10.7812C11.9609 10.5353 11.7616 10.3359 11.5156 10.3359H10.1797V9Z" fill="#353232"/>
</svg>
