<svg width="21" height="20" viewBox="0 0 21 20" fill="none" xmlns="http://www.w3.org/2000/svg">
<path fill-rule="evenodd" clip-rule="evenodd" d="M14.1982 5.54655V6.04134H17.6618V15.9372C17.6618 17.0302 16.7757 17.9163 15.6826 17.9163H5.78678C4.69372 17.9163 3.80762 17.0302 3.80762 15.9372V6.04134H7.27116V5.54655C7.27116 3.63369 8.82184 2.08301 10.7347 2.08301C12.6476 2.08301 14.1982 3.63369 14.1982 5.54655ZM13.2087 5.54655C13.2087 4.18022 12.101 3.07259 10.7347 3.07259C9.36837 3.07259 8.26074 4.18022 8.26074 5.54655V6.04134H13.2087V5.54655ZM11.2295 9.99967C11.2295 9.72641 11.008 9.50488 10.7347 9.50488C10.4614 9.50488 10.2399 9.72641 10.2399 9.99967V11.484H8.75553C8.48227 11.484 8.26074 11.7056 8.26074 11.9788C8.26074 12.2521 8.48227 12.4736 8.75553 12.4736H10.2399V13.958C10.2399 14.2313 10.4614 14.4528 10.7347 14.4528C11.008 14.4528 11.2295 14.2313 11.2295 13.958V12.4736H12.7139C12.9871 12.4736 13.2087 12.2521 13.2087 11.9788C13.2087 11.7056 12.9871 11.484 12.7139 11.484H11.2295V9.99967Z" fill="#FFF2F6"/>
</svg>
