<svg width="20" height="21" viewBox="0 0 20 21" fill="none" xmlns="http://www.w3.org/2000/svg">
<path d="M16.7002 13.8011L14.3436 13.532C13.7777 13.4671 13.221 13.6619 12.8221 14.0609L11.1149 15.768C8.48923 14.432 6.33674 12.2888 5.00071 9.65382L6.71714 7.93739C7.11609 7.53844 7.31093 6.98176 7.24598 6.4158L6.97692 4.07775C6.86558 3.14067 6.07696 2.43555 5.1306 2.43555H3.52551C2.4771 2.43555 1.60497 3.30768 1.66991 4.35609C2.16165 12.2795 8.49851 18.6071 16.4126 19.0988C17.461 19.1638 18.3332 18.2916 18.3332 17.2432V15.6381C18.3424 14.701 17.6373 13.9124 16.7002 13.8011Z" fill="#F6F5FF"/>
</svg>
