<svg width="15" height="15" viewBox="0 0 15 15" fill="none" xmlns="http://www.w3.org/2000/svg">
<path d="M11.925 9.39142L10.2754 9.20307C9.87919 9.15761 9.48952 9.294 9.21025 9.57327L8.01524 10.7683C6.17728 9.83305 4.67053 8.3328 3.73531 6.48834L4.93681 5.28684C5.21608 5.00757 5.35246 4.6179 5.307 4.22173L5.11866 2.58509C5.04072 1.92914 4.48868 1.43555 3.82623 1.43555H2.70267C1.96878 1.43555 1.35829 2.04604 1.40375 2.77993C1.74797 8.3263 6.18377 12.7556 11.7237 13.0998C12.4575 13.1453 13.068 12.5348 13.068 11.8009V10.6773C13.0745 10.0214 12.5809 9.46935 11.925 9.39142Z" fill="#353232" fill-opacity="0.75"/>
</svg>
