<svg width="20" height="21" viewBox="0 0 20 21" fill="none" xmlns="http://www.w3.org/2000/svg">
<path d="M16.7005 13.8011L14.3439 13.532C13.7779 13.4671 13.2212 13.6619 12.8223 14.0609L11.1151 15.768C8.48948 14.432 6.33698 12.2888 5.00095 9.65382L6.71738 7.93739C7.11633 7.53844 7.31117 6.98176 7.24622 6.4158L6.97716 4.07775C6.86583 3.14067 6.0772 2.43555 5.13084 2.43555H3.52575C2.47734 2.43555 1.60521 3.30768 1.67016 4.35609C2.16189 12.2795 8.49875 18.6071 16.4129 19.0988C17.4613 19.1638 18.3334 18.2916 18.3334 17.2432V15.6381C18.3427 14.701 17.6376 13.9124 16.7005 13.8011Z" fill="#353232"/>
</svg>
