<svg width="19" height="18" viewBox="0 0 19 18" fill="none" xmlns="http://www.w3.org/2000/svg">
<path d="M7.82767 1.125C8.29366 1.125 8.67142 1.50276 8.67142 1.96875V9C8.67142 9.31066 8.92326 9.5625 9.23392 9.5625C9.54458 9.5625 9.79642 9.31066 9.79642 9V6.15009C9.82806 6.14859 9.86051 6.14717 9.89357 6.14589C10.2495 6.13205 10.6098 6.13631 10.8111 6.17658C10.9622 6.2068 11.1417 6.28418 11.3157 6.38094C11.4015 6.42864 11.4839 6.5466 11.4839 6.73412V9C11.4839 9.31066 11.7358 9.5625 12.0464 9.5625C12.3571 9.5625 12.6089 9.31066 12.6089 9V7.239C12.6474 7.23517 12.6871 7.2316 12.7278 7.22843C13.0833 7.2008 13.3847 7.21616 13.525 7.27227C13.6577 7.32533 13.8616 7.50589 14.0712 7.75609C14.1626 7.86519 14.2404 7.9696 14.2964 8.0483V9.5625C14.2964 9.87316 14.5483 10.125 14.8589 10.125C15.1696 10.125 15.4214 9.87316 15.4214 9.5625V8.4375H15.8067C16.4723 8.4375 16.9924 9.01217 16.9262 9.67444L16.6207 12.7292C16.5814 13.1219 16.4599 13.502 16.2641 13.8447L14.6944 16.5916C14.5943 16.7668 14.4079 16.875 14.2061 16.875H7.0235C6.83542 16.875 6.65979 16.781 6.55547 16.6245L4.94311 14.206C4.79346 13.9815 4.69981 13.7244 4.67002 13.4563L4.28188 9.96299C4.24966 9.67301 4.44451 9.40652 4.73062 9.3493L5.85892 9.12364V10.125C5.85892 10.4357 6.11076 10.6875 6.42142 10.6875C6.73208 10.6875 6.98392 10.4357 6.98392 10.125V1.96875C6.98392 1.50276 7.36168 1.125 7.82767 1.125ZM9.79642 5.02393V1.96875C9.79642 0.88144 8.91498 0 7.82767 0C6.74036 0 5.85892 0.881439 5.85892 1.96875V7.97636L4.50999 8.24615C3.65167 8.41781 3.06709 9.21726 3.16376 10.0872L3.5519 13.5805C3.60156 14.0274 3.75764 14.4559 4.00706 14.83L5.61941 17.2486C5.93239 17.718 6.45928 18 7.0235 18H14.2061C14.8116 18 15.3708 17.6755 15.6712 17.1497L17.2409 14.4029C17.515 13.9231 17.6851 13.3909 17.7401 12.8411L18.0456 9.78638C18.178 8.46184 17.1379 7.3125 15.8067 7.3125H15.1525C15.092 7.2304 15.0178 7.13424 14.9336 7.03366C14.7179 6.77628 14.3593 6.39434 13.9428 6.22773C13.5339 6.06417 12.9916 6.07953 12.6406 6.10682C12.5893 6.11081 12.5394 6.11531 12.4915 6.12013C12.3751 5.83033 12.1696 5.56847 11.8623 5.39767C11.6431 5.2758 11.3468 5.13644 11.0317 5.07342C10.6839 5.00386 10.2004 5.00811 9.84988 5.02174C9.83187 5.02244 9.81404 5.02317 9.79642 5.02393Z" fill="#F6F5FF"/>
</svg>
