<svg width="109" height="54" viewBox="0 0 109 54" fill="none" xmlns="http://www.w3.org/2000/svg">
<rect width="109" height="53" transform="translate(0 0.537109)" fill="#F78D40"/>
<path d="M17.463 15.8091C17.5143 15.8138 17.582 15.8184 17.666 15.8231C17.75 15.8231 17.8643 15.8231 18.009 15.8231C18.6017 15.8231 19.0427 15.6738 19.332 15.3751C19.626 15.0718 19.773 14.6494 19.773 14.1081C19.773 13.5574 19.6307 13.1351 19.346 12.8411C19.0613 12.5471 18.6203 12.4001 18.023 12.4001C17.7617 12.4001 17.575 12.4071 17.463 12.4211V15.8091ZM20.697 14.1081C20.697 14.5281 20.6317 14.8944 20.501 15.2071C20.3703 15.5151 20.1837 15.7741 19.941 15.9841C19.703 16.1894 19.4137 16.3434 19.073 16.4461C18.737 16.5441 18.3637 16.5931 17.953 16.5931C17.757 16.5931 17.5353 16.5838 17.288 16.5651C17.0407 16.5511 16.805 16.5184 16.581 16.4671V11.7561C16.805 11.7048 17.043 11.6721 17.295 11.6581C17.547 11.6441 17.771 11.6371 17.967 11.6371C18.373 11.6371 18.744 11.6861 19.08 11.7841C19.416 11.8774 19.703 12.0268 19.941 12.2321C20.1837 12.4328 20.3703 12.6894 20.501 13.0021C20.6317 13.3101 20.697 13.6788 20.697 14.1081ZM21.8001 16.5371V11.6861H24.9151V12.4351H22.6821V13.6321H24.6701V14.3671H22.6821V15.7881H25.0831V16.5371H21.8001ZM27.4277 16.5371C27.0777 15.7811 26.7393 14.9901 26.4127 14.1641C26.0907 13.3381 25.7897 12.5121 25.5097 11.6861H26.4827C26.5947 12.0128 26.709 12.3464 26.8257 12.6871C26.9423 13.0278 27.059 13.3638 27.1757 13.6951C27.2923 14.0218 27.409 14.3391 27.5257 14.6471C27.6423 14.9551 27.7567 15.2374 27.8687 15.4941C27.976 15.2374 28.088 14.9574 28.2047 14.6541C28.3213 14.3461 28.438 14.0264 28.5547 13.6951C28.676 13.3638 28.795 13.0278 28.9117 12.6871C29.0283 12.3464 29.1403 12.0128 29.2477 11.6861H30.1927C29.908 12.5121 29.6047 13.3381 29.2827 14.1641C28.9607 14.9901 28.6247 15.7811 28.2747 16.5371H27.4277ZM30.96 16.5371V11.6861H34.075V12.4351H31.842V13.6321H33.83V14.3671H31.842V15.7881H34.243V16.5371H30.96ZM38.2675 15.7741V16.5371H35.2015V11.6861H36.0835V15.7741H38.2675ZM39.5215 14.1081C39.5215 14.3741 39.5542 14.6168 39.6195 14.8361C39.6849 15.0508 39.7782 15.2351 39.8995 15.3891C40.0255 15.5384 40.1772 15.6551 40.3545 15.7391C40.5319 15.8231 40.7325 15.8651 40.9565 15.8651C41.1759 15.8651 41.3742 15.8231 41.5515 15.7391C41.7289 15.6551 41.8782 15.5384 41.9995 15.3891C42.1255 15.2351 42.2212 15.0508 42.2865 14.8361C42.3519 14.6168 42.3845 14.3741 42.3845 14.1081C42.3845 13.8421 42.3519 13.6018 42.2865 13.3871C42.2212 13.1678 42.1255 12.9834 41.9995 12.8341C41.8782 12.6801 41.7289 12.5611 41.5515 12.4771C41.3742 12.3931 41.1759 12.3511 40.9565 12.3511C40.7325 12.3511 40.5319 12.3931 40.3545 12.4771C40.1772 12.5611 40.0255 12.6801 39.8995 12.8341C39.7782 12.9881 39.6849 13.1724 39.6195 13.3871C39.5542 13.6018 39.5215 13.8421 39.5215 14.1081ZM43.3085 14.1081C43.3085 14.5234 43.2455 14.8898 43.1195 15.2071C42.9982 15.5244 42.8302 15.7904 42.6155 16.0051C42.4055 16.2151 42.1582 16.3738 41.8735 16.4811C41.5889 16.5884 41.2855 16.6421 40.9635 16.6421C40.6415 16.6421 40.3359 16.5884 40.0465 16.4811C39.7619 16.3738 39.5122 16.2151 39.2975 16.0051C39.0875 15.7904 38.9195 15.5244 38.7935 15.2071C38.6675 14.8898 38.6045 14.5234 38.6045 14.1081C38.6045 13.6928 38.6675 13.3288 38.7935 13.0161C38.9195 12.6988 39.0899 12.4328 39.3045 12.2181C39.5239 12.0034 39.7759 11.8424 40.0605 11.7351C40.3452 11.6278 40.6462 11.5741 40.9635 11.5741C41.2809 11.5741 41.5819 11.6278 41.8665 11.7351C42.1512 11.8424 42.3985 12.0034 42.6085 12.2181C42.8232 12.4328 42.9935 12.6988 43.1195 13.0161C43.2455 13.3288 43.3085 13.6928 43.3085 14.1081ZM45.7881 11.6371C46.4928 11.6371 47.0318 11.7654 47.4051 12.0221C47.7831 12.2788 47.9721 12.6801 47.9721 13.2261C47.9721 13.5108 47.9208 13.7558 47.8181 13.9611C47.7201 14.1618 47.5755 14.3274 47.3841 14.4581C47.1928 14.5841 46.9595 14.6774 46.6841 14.7381C46.4088 14.7988 46.0938 14.8291 45.7391 14.8291H45.2981V16.5371H44.4161V11.7561C44.6215 11.7094 44.8478 11.6791 45.0951 11.6651C45.3471 11.6464 45.5781 11.6371 45.7881 11.6371ZM45.8511 12.4001C45.6271 12.4001 45.4428 12.4071 45.2981 12.4211V14.0731H45.7251C46.1498 14.0731 46.4765 14.0148 46.7051 13.8981C46.9338 13.7768 47.0481 13.5504 47.0481 13.2191C47.0481 13.0604 47.0178 12.9274 46.9571 12.8201C46.8965 12.7128 46.8125 12.6288 46.7051 12.5681C46.5978 12.5074 46.4695 12.4654 46.3201 12.4421C46.1755 12.4141 46.0191 12.4001 45.8511 12.4001ZM48.9174 16.5371V11.6861H52.0324V12.4351H49.7994V13.6321H51.7874V14.3671H49.7994V15.7881H52.2004V16.5371H48.9174ZM54.041 15.8091C54.0923 15.8138 54.16 15.8184 54.244 15.8231C54.328 15.8231 54.4423 15.8231 54.587 15.8231C55.1797 15.8231 55.6207 15.6738 55.91 15.3751C56.204 15.0718 56.351 14.6494 56.351 14.1081C56.351 13.5574 56.2087 13.1351 55.924 12.8411C55.6393 12.5471 55.1983 12.4001 54.601 12.4001C54.3397 12.4001 54.153 12.4071 54.041 12.4211V15.8091ZM57.275 14.1081C57.275 14.5281 57.2097 14.8944 57.079 15.2071C56.9483 15.5151 56.7617 15.7741 56.519 15.9841C56.281 16.1894 55.9917 16.3434 55.651 16.4461C55.315 16.5441 54.9417 16.5931 54.531 16.5931C54.335 16.5931 54.1133 16.5838 53.866 16.5651C53.6187 16.5511 53.383 16.5184 53.159 16.4671V11.7561C53.383 11.7048 53.621 11.6721 53.873 11.6581C54.125 11.6441 54.349 11.6371 54.545 11.6371C54.951 11.6371 55.322 11.6861 55.658 11.7841C55.994 11.8774 56.281 12.0268 56.519 12.2321C56.7617 12.4328 56.9483 12.6894 57.079 13.0021C57.2097 13.3101 57.275 13.6788 57.275 14.1081ZM61.6149 16.5931C61.3582 16.5931 61.0992 16.5838 60.8379 16.5651C60.5766 16.5511 60.3479 16.5184 60.1519 16.4671V11.7561C60.2546 11.7374 60.3642 11.7211 60.4809 11.7071C60.5976 11.6884 60.7166 11.6744 60.8379 11.6651C60.9592 11.6558 61.0782 11.6488 61.1949 11.6441C61.3162 11.6394 61.4306 11.6371 61.5379 11.6371C61.8319 11.6371 62.1049 11.6604 62.3569 11.7071C62.6089 11.7491 62.8259 11.8214 63.0079 11.9241C63.1946 12.0268 63.3392 12.1621 63.4419 12.3301C63.5446 12.4981 63.5959 12.7058 63.5959 12.9531C63.5959 13.1818 63.5399 13.3778 63.4279 13.5411C63.3206 13.7044 63.1689 13.8351 62.9729 13.9331C63.2669 14.0311 63.4839 14.1758 63.6239 14.3671C63.7639 14.5584 63.8339 14.8011 63.8339 15.0951C63.8339 15.5944 63.6519 15.9701 63.2879 16.2221C62.9239 16.4694 62.3662 16.5931 61.6149 16.5931ZM61.0199 14.3531V15.8301C61.1179 15.8394 61.2229 15.8464 61.3349 15.8511C61.4469 15.8558 61.5496 15.8581 61.6429 15.8581C61.8249 15.8581 61.9929 15.8464 62.1469 15.8231C62.3056 15.7998 62.4409 15.7601 62.5529 15.7041C62.6696 15.6434 62.7606 15.5641 62.8259 15.4661C62.8959 15.3681 62.9309 15.2421 62.9309 15.0881C62.9309 14.8128 62.8306 14.6214 62.6299 14.5141C62.4292 14.4068 62.1516 14.3531 61.7969 14.3531H61.0199ZM61.0199 13.6601H61.6429C61.9789 13.6601 62.2426 13.6134 62.4339 13.5201C62.6252 13.4221 62.7209 13.2494 62.7209 13.0021C62.7209 12.7688 62.6206 12.6031 62.4199 12.5051C62.2239 12.4071 61.9672 12.3581 61.6499 12.3581C61.5146 12.3581 61.3932 12.3604 61.2859 12.3651C61.1832 12.3698 61.0946 12.3768 61.0199 12.3861V13.6601ZM66.3663 13.8351C66.5763 13.4851 66.7816 13.1304 66.9823 12.7711C67.1829 12.4118 67.3649 12.0501 67.5283 11.6861H68.5083C68.2469 12.1808 67.9739 12.6731 67.6893 13.1631C67.4093 13.6484 67.1083 14.1384 66.7863 14.6331V16.5371H65.9043V14.6471C65.5823 14.1478 65.2789 13.6531 64.9943 13.1631C64.7096 12.6731 64.4366 12.1808 64.1753 11.6861H65.2113C65.3746 12.0501 65.5543 12.4118 65.7503 12.7711C65.9463 13.1304 66.1516 13.4851 66.3663 13.8351Z" fill="#F0F0F0" fill-opacity="0.5"/>
<path d="M18.2506 28.5064C18.3331 29.112 19.049 29.5157 19.9257 29.5157C20.8478 29.5157 21.446 29.1237 21.446 28.5926C21.446 28.1027 21.0541 27.8636 20.002 27.6558L18.7849 27.4285C17.0706 27.1169 16.1877 26.2349 16.1877 24.8944C16.1877 23.1796 17.7349 22.0762 19.8865 22.0762C22.2134 22.0762 23.5873 23.1482 23.6121 24.8082H21.4275C21.3821 24.1654 20.757 23.7793 19.9071 23.7793C19.0572 23.7793 18.5332 24.134 18.5332 24.673C18.5332 25.1512 18.9458 25.4138 19.9195 25.6039L21.1242 25.8175C22.9623 26.1546 23.7874 26.9444 23.7874 28.3418C23.7874 30.1056 22.2588 31.2188 19.8679 31.2188C17.477 31.2188 16.0289 30.2252 16 28.5064H18.2506Z" fill="#F0F0F0"/>
<path d="M31.7585 31.0699V27.5128H28.0452V31.0699H25.6874V22.2349H28.0514V25.6999H31.7647V22.2349H34.1225V31.0699H31.7585Z" fill="#F0F0F0"/>
<path d="M35.8059 31.0699L38.927 22.2349H41.8151L44.9507 31.0699H42.434L41.846 29.1296H38.8094L35.8059 31.0699ZM39.2653 27.5128H41.386L40.3546 24.1085H40.303L39.2653 27.5128Z" fill="#F0F0F0"/>
<path d="M46.6319 31.0699V22.2349H50.6608C52.6577 22.2349 54.0109 23.4657 54.0109 25.3707C54.0109 27.2756 52.5875 28.4868 50.5184 28.4868H48.9981L46.6319 31.0699ZM48.9981 26.7974H50.0295C51.0342 26.7974 51.6262 26.3016 51.6262 25.3766C51.6262 24.4515 51.0342 23.9616 50.0419 23.9616H49.0105L48.9981 26.7974Z" fill="#F0F0F0"/>
<path d="M64.7813 26.6544C64.7813 29.4707 63.0093 31.2228 60.1914 31.2228C57.3734 31.2228 55.5973 29.4707 55.5973 26.6544C55.5973 23.8381 57.3755 22.0801 60.1914 22.0801C63.0072 22.0801 64.7813 23.8381 64.7813 26.6544ZM58.0067 26.6544C58.0067 28.332 58.8649 29.3982 60.1914 29.3982C61.5178 29.3982 62.378 28.332 62.378 26.6544C62.378 24.9768 61.5137 23.9106 60.1914 23.9106C58.869 23.9106 58.0067 24.9787 58.0067 26.6544Z" fill="#F0F0F0"/>
<path d="M69.1897 24.5064L70.3676 28.8709H70.4192L72.2057 22.2349H74.7967L71.8302 31.0699H68.8535L65.8891 22.2349" fill="#F0F0F0"/>
<path d="M74.8792 31.0699L78.0045 22.2349H80.8925L84.0178 31.0699H81.5114L80.9235 29.1296H77.8828L74.8792 31.0699ZM78.3407 27.5128H80.4614L79.4299 24.1085H79.3784L78.3407 27.5128Z" fill="#F0F0F0"/>
<path d="M88.0714 29.257H91.9187V31.0699H85.7053V22.2349" fill="#F0F0F0"/>
<path d="M16.0664 42.9122L19.2515 33.9107H22.1994L25.3845 42.9122H22.8224L22.218 40.9348H19.1236L16.0664 42.9122ZM19.5898 39.2885H21.7518L20.6997 35.8196H20.6481L19.5898 39.2885Z" fill="#F0F0F0"/>
<path d="M38.8882 38.0028V39.1082C38.8882 41.5658 37.2854 43.069 34.5871 43.069C31.664 43.069 29.9043 41.3542 29.9043 38.3968C29.9043 35.4766 31.664 33.7539 34.5273 33.7539C36.8253 33.7539 38.5458 35.0454 38.7892 36.8896H36.4066C36.1693 36.092 35.4597 35.606 34.5335 35.606C33.1678 35.606 32.3612 36.6212 32.3612 38.3752C32.3612 40.1293 33.2545 41.2385 34.6304 41.2385C35.7217 41.2385 36.487 40.6271 36.5489 39.7216V39.5844H34.8161" fill="#F0F0F0"/>
<path d="M51.0201 42.9122H44.5241V33.9107H51.0201V35.7588H46.9356V37.5501H50.7767V39.2336H46.9356V41.068H51.0201V42.9122Z" fill="#F0F0F0"/>
<path d="M56.821 42.9122V33.9107H58.7436L62.7642 39.1454H62.8158V33.9107H65.1015V42.9122H63.1974L59.1582 37.6207H59.1067V42.9122H56.821Z" fill="#F0F0F0"/>
<path d="M70.4237 38.4222C70.4237 35.4825 72.1999 33.7814 75.0137 33.7814C77.4046 33.7814 79.2178 35.2434 79.29 37.3639H76.9775C76.86 36.3076 76.0678 35.6001 75.0137 35.6001C73.7037 35.6001 72.8724 36.6643 72.8724 38.4066C72.8724 40.1489 73.6975 41.2464 75.0281 41.2464C76.0822 41.2464 76.8496 40.5859 77.0002 39.5354H79.3107C79.1993 41.6697 77.4541 43.0749 75.0219 43.0749C72.1854 43.069 70.4237 41.3581 70.4237 38.4222Z" fill="#F0F0F0"/>
<path d="M86.5143 42.9122V39.8196L83.2508 33.9107H85.8377L87.7211 37.654H87.7686L89.6458 33.9107H92.1873L88.9238 39.8196V42.9122H86.5143Z" fill="#F0F0F0"/>
</svg>
