<svg width="19" height="18" viewBox="0 0 19 18" fill="none" xmlns="http://www.w3.org/2000/svg">
<path d="M2.75 1.125C2.12868 1.125 1.625 1.62868 1.625 2.25C1.625 2.87132 2.12868 3.375 2.75 3.375C3.37132 3.375 3.875 2.87132 3.875 2.25C3.875 1.62868 3.37132 1.125 2.75 1.125ZM0.5 2.25C0.5 1.00736 1.50736 0 2.75 0C3.79841 0 4.67934 0.71706 4.92912 1.6875H14.0709C14.3207 0.71706 15.2016 0 16.25 0C17.4926 0 18.5 1.00736 18.5 2.25C18.5 3.29841 17.7829 4.17934 16.8125 4.42912V13.5709C17.7829 13.8207 18.5 14.7016 18.5 15.75C18.5 16.9926 17.4926 18 16.25 18C15.2016 18 14.3207 17.2829 14.0709 16.3125H4.92912C4.67934 17.2829 3.79841 18 2.75 18C1.50736 18 0.5 16.9926 0.5 15.75C0.5 14.7016 1.21706 13.8207 2.1875 13.5709V4.42912C1.21706 4.17934 0.5 3.29841 0.5 2.25ZM3.3125 4.42912V13.5709C4.10315 13.7744 4.72562 14.3968 4.92912 15.1875H14.0709C14.2744 14.3968 14.8968 13.7744 15.6875 13.5709V4.42912C14.8968 4.22562 14.2744 3.60315 14.0709 2.8125H4.92912C4.72562 3.60315 4.10315 4.22562 3.3125 4.42912ZM16.25 1.125C15.6287 1.125 15.125 1.62868 15.125 2.25C15.125 2.87132 15.6287 3.375 16.25 3.375C16.8713 3.375 17.375 2.87132 17.375 2.25C17.375 1.62868 16.8713 1.125 16.25 1.125ZM2.75 14.625C2.12868 14.625 1.625 15.1287 1.625 15.75C1.625 16.3713 2.12868 16.875 2.75 16.875C3.37132 16.875 3.875 16.3713 3.875 15.75C3.875 15.1287 3.37132 14.625 2.75 14.625ZM16.25 14.625C15.6287 14.625 15.125 15.1287 15.125 15.75C15.125 16.3713 15.6287 16.875 16.25 16.875C16.8713 16.875 17.375 16.3713 17.375 15.75C17.375 15.1287 16.8713 14.625 16.25 14.625Z" fill="#554E7F"/>
</svg>
