<svg width="20" height="20" viewBox="0 0 20 20" fill="none" xmlns="http://www.w3.org/2000/svg">
<path d="M3.4375 1.25C2.22938 1.25 1.25 2.22938 1.25 3.4375V16.5625C1.25 17.7706 2.22938 18.75 3.4375 18.75H16.5625C17.7706 18.75 18.75 17.7706 18.75 16.5625V3.4375C18.75 2.22938 17.7706 1.25 16.5625 1.25H3.4375ZM3.98438 6.71875H16.0156C16.3177 6.71875 16.5625 6.96359 16.5625 7.26562C16.5625 7.56766 16.3177 7.8125 16.0156 7.8125H3.98438C3.68234 7.8125 3.4375 7.56766 3.4375 7.26562C3.4375 6.96359 3.68234 6.71875 3.98438 6.71875ZM5.625 10.5469C5.625 10.2448 5.86984 10 6.17188 10H13.8281C14.1302 10 14.375 10.2448 14.375 10.5469C14.375 10.8489 14.1302 11.0938 13.8281 11.0938H6.17188C5.86984 11.0938 5.625 10.8489 5.625 10.5469ZM7.8125 13.8281C7.8125 13.5261 8.05734 13.2812 8.35938 13.2812H11.6406C11.9427 13.2812 12.1875 13.5261 12.1875 13.8281C12.1875 14.1302 11.9427 14.375 11.6406 14.375H8.35938C8.05734 14.375 7.8125 14.1302 7.8125 13.8281Z" fill="#F6F5FF"/>
</svg>
