<svg width="16" height="16" viewBox="0 0 16 16" fill="none" xmlns="http://www.w3.org/2000/svg">
<path d="M8.00065 1.33333C6.29157 1.3382 4.64964 1.99927 3.41398 3.17999V1.99999C3.41398 1.82318 3.34375 1.65361 3.21872 1.52859C3.0937 1.40357 2.92413 1.33333 2.74732 1.33333C2.57051 1.33333 2.40094 1.40357 2.27591 1.52859C2.15089 1.65361 2.08065 1.82318 2.08065 1.99999V5C2.08065 5.17681 2.15089 5.34638 2.27591 5.4714C2.40094 5.59642 2.57051 5.66666 2.74732 5.66666H5.74732C5.92413 5.66666 6.0937 5.59642 6.21872 5.4714C6.34375 5.34638 6.41398 5.17681 6.41398 5C6.41398 4.82318 6.34375 4.65361 6.21872 4.52859C6.0937 4.40357 5.92413 4.33333 5.74732 4.33333H4.14732C5.0045 3.43757 6.14699 2.86843 7.37834 2.72377C8.60969 2.57912 9.85297 2.86798 10.8944 3.54069C11.9359 4.2134 12.7104 5.22794 13.0849 6.40986C13.4593 7.59177 13.4103 8.86723 12.9463 10.0169C12.4822 11.1666 11.6321 12.1187 10.5421 12.7095C9.45209 13.3003 8.19031 13.4929 6.97369 13.2542C5.75707 13.0155 4.66163 12.3604 3.87571 11.4015C3.0898 10.4426 2.66251 9.23981 2.66732 8C2.66732 7.82318 2.59708 7.65361 2.47206 7.52859C2.34703 7.40357 2.17746 7.33333 2.00065 7.33333C1.82384 7.33333 1.65427 7.40357 1.52925 7.52859C1.40422 7.65361 1.33398 7.82318 1.33398 8C1.33398 9.31854 1.72498 10.6075 2.45752 11.7038C3.19006 12.8001 4.23125 13.6546 5.44943 14.1592C6.6676 14.6638 8.00805 14.7958 9.30125 14.5386C10.5945 14.2813 11.7823 13.6464 12.7147 12.714C13.647 11.7817 14.282 10.5938 14.5392 9.3006C14.7965 8.00739 14.6644 6.66695 14.1598 5.44877C13.6553 4.2306 12.8008 3.18941 11.7045 2.45686C10.6081 1.72432 9.31919 1.33333 8.00065 1.33333ZM8.00065 5.33333C7.82384 5.33333 7.65427 5.40357 7.52925 5.52859C7.40422 5.65361 7.33398 5.82318 7.33398 6V8C7.33398 8.17681 7.40422 8.34638 7.52925 8.4714C7.65427 8.59642 7.82384 8.66666 8.00065 8.66666H9.33398C9.5108 8.66666 9.68036 8.59642 9.80539 8.4714C9.93041 8.34638 10.0007 8.17681 10.0007 8C10.0007 7.82318 9.93041 7.65361 9.80539 7.52859C9.68036 7.40357 9.5108 7.33333 9.33398 7.33333H8.66732V6C8.66732 5.82318 8.59708 5.65361 8.47206 5.52859C8.34703 5.40357 8.17746 5.33333 8.00065 5.33333Z" fill="#554E7F"/>
</svg>
