<svg width="21" height="21" viewBox="0 0 21 21" fill="none" xmlns="http://www.w3.org/2000/svg">
<g clip-path="url(#clip0_303_8398)">
<path d="M19.6094 4.75606C18.9084 5.04812 18.2075 5.28176 17.3897 5.34017C18.2075 4.87288 18.7916 4.11354 19.0837 3.23737C18.3243 3.70466 17.5066 3.99671 16.6304 4.17195C15.9295 3.4126 14.9365 2.94531 13.8851 2.94531C11.7823 2.94531 10.0299 4.63924 10.0299 6.80045C10.0299 7.09251 10.0883 7.38457 10.1468 7.67662C6.93414 7.50139 4.1304 5.9827 2.20283 3.64625C1.85237 4.23036 1.67713 4.87288 1.67713 5.57382C1.67713 6.91728 2.37807 8.0855 3.37106 8.78643C2.72853 8.78643 2.14442 8.6112 1.61872 8.31914V8.37756C1.61872 10.2467 2.96218 11.7654 4.71452 12.1159C4.36405 12.1743 4.07199 12.2327 3.72152 12.2327C3.48788 12.2327 3.25423 12.2327 3.02059 12.1743C3.48788 13.693 4.94816 14.8028 6.58367 14.8612C5.29863 15.9126 3.6047 16.4967 1.79395 16.4967C1.5019 16.4967 1.15143 16.4967 0.859375 16.4383C2.61171 17.4897 4.6561 18.1322 6.81732 18.1322C13.8851 18.1322 17.7402 12.2911 17.7402 7.20933C17.7402 7.0341 17.7402 6.85886 17.7402 6.74204C18.4412 6.15793 19.0837 5.51541 19.6094 4.75606Z" fill="white" fill-opacity="0.5"/>
</g>
<defs>
<clipPath id="clip0_303_8398">
<rect width="20" height="20" fill="white" transform="translate(0.234375 0.539062)"/>
</clipPath>
</defs>
</svg>
