<svg width="20" height="20" viewBox="0 0 20 20" fill="none" xmlns="http://www.w3.org/2000/svg">
<path d="M19.375 4.217C18.6741 4.50905 17.9731 4.7427 17.1554 4.80111C17.9731 4.33382 18.5572 3.57447 18.8493 2.69831C18.09 3.1656 17.2722 3.45765 16.396 3.63289C15.6951 2.87354 14.7021 2.40625 13.6507 2.40625C11.5479 2.40625 9.79556 4.10018 9.79556 6.26139C9.79556 6.55345 9.85397 6.8455 9.91238 7.13756C6.69977 6.96233 3.89603 5.44363 1.96846 3.10718C1.61799 3.6913 1.44276 4.33382 1.44276 5.03475C1.44276 6.37821 2.14369 7.54644 3.13668 8.24737C2.49416 8.24737 1.91005 8.07214 1.38435 7.78008V7.83849C1.38435 9.70765 2.7278 11.2263 4.48014 11.5768C4.12967 11.6352 3.83762 11.6936 3.48715 11.6936C3.2535 11.6936 3.01986 11.6936 2.78621 11.6352C3.2535 13.1539 4.71379 14.2637 6.3493 14.3221C5.06425 15.3735 3.37033 15.9577 1.55958 15.9577C1.26752 15.9577 0.917056 15.9577 0.625 15.8992C2.37734 16.9506 4.42173 17.5932 6.58294 17.5932C13.6507 17.5932 17.5058 11.752 17.5058 6.67027C17.5058 6.49504 17.5058 6.3198 17.5058 6.20298C18.2068 5.61887 18.8493 4.97634 19.375 4.217Z" fill="white"/>
</svg>
