<svg width="15" height="14" viewBox="0 0 15 14" fill="none" xmlns="http://www.w3.org/2000/svg">
<path fill-rule="evenodd" clip-rule="evenodd" d="M10.7346 4.08398C10.7346 6.01698 9.16757 7.58398 7.23458 7.58398C5.30158 7.58398 3.73458 6.01698 3.73458 4.08398C3.73458 2.15099 5.30158 0.583984 7.23458 0.583984C9.16757 0.583984 10.7346 2.15099 10.7346 4.08398ZM9.56791 4.08398C9.56791 5.37265 8.52324 6.41732 7.23458 6.41732C5.94591 6.41732 4.90125 5.37265 4.90125 4.08398C4.90125 2.79532 5.94591 1.75065 7.23458 1.75065C8.52324 1.75065 9.56791 2.79532 9.56791 4.08398Z" fill="#353232" fill-opacity="0.75"/>
<path fill-rule="evenodd" clip-rule="evenodd" d="M7.23462 8.16732C5.52246 8.16732 4.28799 8.52247 3.40245 9.055C2.51339 9.58965 2.01402 10.2804 1.73826 10.8845C1.50581 11.3938 1.6116 11.9128 1.92044 12.2825C2.21483 12.6349 2.67256 12.834 3.15127 12.834H11.3179C11.7966 12.834 12.2544 12.6349 12.5487 12.2825C12.8576 11.9128 12.9634 11.3938 12.7309 10.8846C12.4552 10.2804 11.9558 9.58966 11.0668 9.05501C10.1813 8.52248 8.94679 8.16732 7.23462 8.16732ZM2.79958 11.369C2.99101 10.9496 3.34264 10.4523 4.0037 10.0548C4.66829 9.65514 5.68307 9.33398 7.23462 9.33398C8.78618 9.33398 9.80095 9.65515 10.4655 10.0548C11.1266 10.4523 11.4782 10.9496 11.6696 11.369C11.6922 11.4185 11.6912 11.4483 11.689 11.4635C11.6864 11.4809 11.6778 11.5052 11.6534 11.5346C11.6008 11.5975 11.4835 11.6673 11.3179 11.6673H3.15127C2.98565 11.6673 2.86842 11.5975 2.81583 11.5346C2.79134 11.5052 2.78282 11.4808 2.78023 11.4635C2.77796 11.4483 2.77698 11.4185 2.79958 11.369Z" fill="#353232" fill-opacity="0.75"/>
</svg>
