<svg width="3779" height="1163" viewBox="0 0 3779 1163" fill="none" xmlns="http://www.w3.org/2000/svg">
<path d="M107.706 384.355C93.5834 350.505 79.4605 326.503 65.3376 312.347C51.8287 298.192 35.5567 289.883 16.5215 287.421V268.958L55.2059 267.111C95.7325 267.111 131.347 274.805 162.049 290.191C192.751 305.577 217.926 336.965 237.576 384.355L383.103 729.625L577.446 276.343H624.42L359.155 894.875H322.313L107.706 384.355Z" fill="#F6F5FF"/>
<path d="M838.566 894.875C796.198 894.875 759.048 885.028 727.118 865.333C695.188 845.639 670.32 818.866 652.513 785.016C635.319 750.551 626.723 711.777 626.723 668.695C626.723 620.69 635.319 579.762 652.513 545.912C670.32 512.062 694.574 486.521 725.276 469.288C755.978 451.44 790.671 442.516 829.356 442.516C867.426 442.516 901.812 450.209 932.514 465.595C963.216 480.982 987.471 502.83 1005.28 531.141C1023.09 558.837 1031.99 590.84 1031.99 627.152C1031.99 638.846 1031.37 652.078 1030.15 666.849L1028.3 685.313H751.066C751.066 743.781 759.969 786.555 777.776 813.635C795.584 840.099 820.452 853.332 852.382 853.332C881.856 853.332 906.418 846.869 926.067 833.945C946.33 820.405 965.672 801.326 984.094 776.708L1012.65 797.941C994.839 825.636 972.427 848.716 945.409 867.179C919.005 885.643 883.391 894.875 838.566 894.875ZM907.646 643.769C907.646 585.917 900.891 544.989 887.382 520.986C873.874 496.368 854.531 484.059 829.356 484.059C806.022 484.059 786.987 496.676 772.25 521.909C758.127 546.528 751.066 587.148 751.066 643.769H907.646Z" fill="#F6F5FF"/>
<path d="M1439.82 460.979C1450.88 468.98 1458.86 477.904 1463.77 487.752C1468.68 496.984 1471.14 501.907 1471.14 502.523L1424.17 538.527C1419.87 532.988 1414.34 527.141 1407.59 520.986C1394.08 508.677 1378.42 502.523 1360.61 502.523C1325 502.523 1297.67 512.062 1278.64 531.141L1280.48 544.989C1281.71 556.067 1282.32 566.222 1282.32 575.454V885.643H1162.58V571.761C1162.58 540.373 1158.29 517.294 1149.69 502.523C1141.71 487.136 1124.82 479.443 1099.03 479.443H1089.82V451.748H1181.01C1201.88 451.748 1218.16 454.517 1229.82 460.056C1242.1 464.98 1251.62 473.596 1258.37 485.905C1291.53 456.979 1330.22 442.516 1374.43 442.516C1400.83 442.516 1422.63 448.67 1439.82 460.979Z" fill="#F6F5FF"/>
<path d="M1755.72 894.875C1710.89 894.875 1671.59 885.028 1637.82 865.333C1604.66 845.023 1579.18 817.943 1561.37 784.093C1543.57 749.628 1534.66 711.162 1534.66 668.695C1534.66 626.229 1543.57 588.071 1561.37 554.221C1579.18 519.755 1604.66 492.675 1637.82 472.981C1671.59 452.671 1710.89 442.516 1755.72 442.516C1800.54 442.516 1839.53 452.671 1872.69 472.981C1906.46 492.675 1932.25 519.755 1950.06 554.221C1967.87 588.071 1976.77 626.229 1976.77 668.695C1976.77 711.162 1967.87 749.628 1950.06 784.093C1932.25 817.943 1906.46 845.023 1872.69 865.333C1839.53 885.028 1800.54 894.875 1755.72 894.875ZM1755.72 853.332C1787.03 853.332 1810.98 836.407 1827.56 802.557C1844.14 768.707 1852.43 724.086 1852.43 668.695C1852.43 613.304 1844.14 568.684 1827.56 534.834C1810.98 500.984 1787.03 484.059 1755.72 484.059C1724.4 484.059 1700.45 500.984 1683.88 534.834C1667.3 568.684 1659.01 613.304 1659.01 668.695C1659.01 724.086 1667.3 768.707 1683.88 802.557C1700.45 836.407 1724.4 853.332 1755.72 853.332Z" fill="#F6F5FF"/>
<path d="M2111.02 571.761C2111.02 540.373 2106.73 517.294 2098.13 502.523C2090.15 487.136 2073.26 479.443 2047.47 479.443H2038.26V451.748H2129.44C2150.32 451.748 2166.59 454.517 2178.26 460.056C2190.54 464.98 2200.06 473.596 2206.81 485.905C2238.13 456.979 2282.95 442.516 2341.29 442.516C2399.62 442.516 2443.22 456.364 2472.08 484.059C2501.55 511.139 2516.29 553.913 2516.29 612.381V885.643H2396.55V611.458C2396.55 568.992 2388.57 537.911 2372.6 518.217C2357.25 498.522 2336.07 488.675 2309.05 488.675C2290.02 488.675 2273.13 491.444 2258.39 496.984C2244.27 501.907 2232.91 508.677 2224.31 517.294L2227.08 530.218C2229.53 537.604 2230.76 549.605 2230.76 566.222V885.643H2111.02V571.761Z" fill="#F6F5FF"/>
<path d="M2727.39 401.896C2705.29 401.896 2688.09 395.126 2675.81 381.586C2664.15 368.046 2658.31 351.429 2658.31 331.734C2658.31 315.732 2662.92 303.115 2672.13 293.884C2681.95 284.652 2694.23 280.036 2708.97 280.036C2731.08 280.036 2747.96 286.806 2759.63 300.346C2771.91 313.886 2778.05 330.503 2778.05 350.198C2778.05 366.199 2773.14 378.816 2763.31 388.048C2754.1 397.28 2742.13 401.896 2727.39 401.896ZM2667.52 571.761C2667.52 540.373 2663.22 517.294 2654.63 502.523C2646.03 487.136 2628.84 479.443 2603.05 479.443H2593.84V451.748H2704.36C2726.47 451.748 2743.36 455.44 2755.02 462.826C2766.69 470.211 2774.98 482.52 2779.89 499.753C2784.8 516.37 2787.26 540.373 2787.26 571.761V885.643H2667.52V571.761Z" fill="#F6F5FF"/>
<path d="M3122.16 894.875C3074.88 894.875 3034.66 884.72 3001.5 864.41C2968.34 844.1 2943.17 817.02 2925.97 783.17C2909.39 748.704 2901.1 710.546 2901.1 668.695C2901.1 626.844 2909.39 588.994 2925.97 555.144C2943.17 520.679 2968.34 493.291 3001.5 472.981C3034.66 452.671 3074.88 442.516 3122.16 442.516C3195.84 442.516 3243.43 453.286 3264.92 474.827C3275.36 485.29 3281.81 499.138 3284.26 516.37C3286.72 533.603 3287.95 562.837 3287.95 604.073H3260.32C3257.86 565.299 3245.89 535.757 3224.4 515.447C3202.9 494.522 3173.43 484.059 3135.97 484.059C3102.2 484.059 3075.18 499.753 3054.92 531.141C3035.27 561.914 3025.45 607.765 3025.45 668.695C3025.45 791.786 3063.82 853.332 3140.58 853.332C3170.05 853.332 3194.62 846.869 3214.26 833.945C3234.53 820.405 3253.87 801.326 3272.29 776.708L3300.84 797.941C3283.04 825.636 3260.62 848.716 3233.61 867.179C3206.59 885.643 3169.44 894.875 3122.16 894.875Z" fill="#F6F5FF"/>
<path d="M3535.8 894.875C3486.06 894.875 3447.38 883.797 3419.75 861.64C3392.73 838.869 3379.22 808.404 3379.22 770.245C3379.22 739.473 3386.28 713.931 3400.4 693.621C3415.14 673.311 3440.62 657.925 3476.85 647.462C3513.08 636.999 3563.43 631.768 3627.91 631.768H3641.72C3641.72 578.224 3634.35 540.373 3619.62 518.217C3604.88 495.445 3583.08 484.059 3554.22 484.059C3530.27 484.059 3510.62 489.906 3495.27 501.6C3479.92 513.293 3468.87 535.142 3462.12 567.145H3411.46C3411.46 546.22 3412.69 528.372 3415.14 513.601C3418.21 498.83 3424.66 485.905 3434.48 474.827C3453.52 453.286 3499.57 442.516 3572.64 442.516C3634.05 442.516 3680.71 458.825 3712.64 491.444C3745.19 523.448 3761.46 571.761 3761.46 636.384V885.643H3683.17L3650.93 844.1H3646.33C3640.8 852.716 3632.2 861.333 3620.54 869.949C3599.66 886.566 3571.41 894.875 3535.8 894.875ZM3563.43 848.716C3576.33 848.716 3587.38 846.254 3596.59 841.33C3605.8 835.791 3614.7 828.406 3623.3 819.174C3631.28 810.558 3637.42 800.403 3641.72 788.709V673.311H3627.91C3584.31 673.311 3552.69 681.312 3533.04 697.314C3513.39 712.7 3503.56 737.011 3503.56 770.245C3503.56 795.479 3508.78 814.866 3519.22 828.406C3529.66 841.946 3544.4 848.716 3563.43 848.716Z" fill="#F6F5FF"/>
<path d="M1978.87 353.323C1978.87 387.432 1951.28 415.084 1917.25 415.084C1883.22 415.084 1855.63 387.432 1855.63 353.323C1855.63 319.213 1883.22 291.561 1917.25 291.561C1951.28 291.561 1978.87 319.213 1978.87 353.323Z" fill="white"/>
</svg>
